G04 #@! TF.FileFunction,Legend,Top*
%FSLAX46Y46*%
G04 Gerber Fmt 4.6, Leading zero omitted, Abs format (unit mm)*
G04 Created by KiCad (PCBNEW 4.0.7) date 10/30/17 13:40:03*
%MOMM*%
%LPD*%
G01*
G04 APERTURE LIST*
%ADD10C,0.100000*%
%ADD11C,0.150000*%
%ADD12C,0.300000*%
%ADD13C,0.120000*%
%ADD14C,0.010000*%
G04 APERTURE END LIST*
D10*
D11*
X138238096Y-117700000D02*
X138161905Y-117661905D01*
X138047620Y-117661905D01*
X137933334Y-117700000D01*
X137857143Y-117776190D01*
X137819048Y-117852381D01*
X137780953Y-118004762D01*
X137780953Y-118119048D01*
X137819048Y-118271429D01*
X137857143Y-118347619D01*
X137933334Y-118423810D01*
X138047620Y-118461905D01*
X138123810Y-118461905D01*
X138238096Y-118423810D01*
X138276191Y-118385714D01*
X138276191Y-118119048D01*
X138123810Y-118119048D01*
X138619048Y-118461905D02*
X138619048Y-117661905D01*
X139076191Y-118461905D01*
X139076191Y-117661905D01*
X139457143Y-118461905D02*
X139457143Y-117661905D01*
X139647619Y-117661905D01*
X139761905Y-117700000D01*
X139838096Y-117776190D01*
X139876191Y-117852381D01*
X139914286Y-118004762D01*
X139914286Y-118119048D01*
X139876191Y-118271429D01*
X139838096Y-118347619D01*
X139761905Y-118423810D01*
X139647619Y-118461905D01*
X139457143Y-118461905D01*
X140752381Y-117661905D02*
X141019048Y-118461905D01*
X141285715Y-117661905D01*
X142009524Y-118385714D02*
X141971429Y-118423810D01*
X141857143Y-118461905D01*
X141780953Y-118461905D01*
X141666667Y-118423810D01*
X141590476Y-118347619D01*
X141552381Y-118271429D01*
X141514286Y-118119048D01*
X141514286Y-118004762D01*
X141552381Y-117852381D01*
X141590476Y-117776190D01*
X141666667Y-117700000D01*
X141780953Y-117661905D01*
X141857143Y-117661905D01*
X141971429Y-117700000D01*
X142009524Y-117738095D01*
X142809524Y-118385714D02*
X142771429Y-118423810D01*
X142657143Y-118461905D01*
X142580953Y-118461905D01*
X142466667Y-118423810D01*
X142390476Y-118347619D01*
X142352381Y-118271429D01*
X142314286Y-118119048D01*
X142314286Y-118004762D01*
X142352381Y-117852381D01*
X142390476Y-117776190D01*
X142466667Y-117700000D01*
X142580953Y-117661905D01*
X142657143Y-117661905D01*
X142771429Y-117700000D01*
X142809524Y-117738095D01*
D12*
X125492857Y-117457142D02*
X125564286Y-117242856D01*
X125635714Y-117171428D01*
X125778571Y-117099999D01*
X125992857Y-117099999D01*
X126135714Y-117171428D01*
X126207143Y-117242856D01*
X126278571Y-117385714D01*
X126278571Y-117957142D01*
X124778571Y-117957142D01*
X124778571Y-117457142D01*
X124850000Y-117314285D01*
X124921429Y-117242856D01*
X125064286Y-117171428D01*
X125207143Y-117171428D01*
X125350000Y-117242856D01*
X125421429Y-117314285D01*
X125492857Y-117457142D01*
X125492857Y-117957142D01*
X126278571Y-115742856D02*
X126278571Y-116457142D01*
X124778571Y-116457142D01*
X125492857Y-115242856D02*
X125492857Y-114742856D01*
X126278571Y-114528570D02*
X126278571Y-115242856D01*
X124778571Y-115242856D01*
X124778571Y-114528570D01*
X126207143Y-112814285D02*
X126278571Y-112671428D01*
X126278571Y-112385713D01*
X126207143Y-112242856D01*
X126064286Y-112171428D01*
X125992857Y-112171428D01*
X125850000Y-112242856D01*
X125778571Y-112385713D01*
X125778571Y-112599999D01*
X125707143Y-112742856D01*
X125564286Y-112814285D01*
X125492857Y-112814285D01*
X125350000Y-112742856D01*
X125278571Y-112599999D01*
X125278571Y-112385713D01*
X125350000Y-112242856D01*
X126207143Y-110957142D02*
X126278571Y-111099999D01*
X126278571Y-111385713D01*
X126207143Y-111528570D01*
X126064286Y-111599999D01*
X125492857Y-111599999D01*
X125350000Y-111528570D01*
X125278571Y-111385713D01*
X125278571Y-111099999D01*
X125350000Y-110957142D01*
X125492857Y-110885713D01*
X125635714Y-110885713D01*
X125778571Y-111599999D01*
X125278571Y-110242856D02*
X126278571Y-110242856D01*
X125421429Y-110242856D02*
X125350000Y-110171428D01*
X125278571Y-110028570D01*
X125278571Y-109814285D01*
X125350000Y-109671428D01*
X125492857Y-109599999D01*
X126278571Y-109599999D01*
X126207143Y-108957142D02*
X126278571Y-108814285D01*
X126278571Y-108528570D01*
X126207143Y-108385713D01*
X126064286Y-108314285D01*
X125992857Y-108314285D01*
X125850000Y-108385713D01*
X125778571Y-108528570D01*
X125778571Y-108742856D01*
X125707143Y-108885713D01*
X125564286Y-108957142D01*
X125492857Y-108957142D01*
X125350000Y-108885713D01*
X125278571Y-108742856D01*
X125278571Y-108528570D01*
X125350000Y-108385713D01*
X126278571Y-107457141D02*
X126207143Y-107599999D01*
X126135714Y-107671427D01*
X125992857Y-107742856D01*
X125564286Y-107742856D01*
X125421429Y-107671427D01*
X125350000Y-107599999D01*
X125278571Y-107457141D01*
X125278571Y-107242856D01*
X125350000Y-107099999D01*
X125421429Y-107028570D01*
X125564286Y-106957141D01*
X125992857Y-106957141D01*
X126135714Y-107028570D01*
X126207143Y-107099999D01*
X126278571Y-107242856D01*
X126278571Y-107457141D01*
X126278571Y-106314284D02*
X125278571Y-106314284D01*
X125564286Y-106314284D02*
X125421429Y-106242856D01*
X125350000Y-106171427D01*
X125278571Y-106028570D01*
X125278571Y-105885713D01*
X125278571Y-104385713D02*
X126278571Y-104028570D01*
X125278571Y-103671428D01*
X126278571Y-102314285D02*
X126278571Y-103171428D01*
X126278571Y-102742856D02*
X124778571Y-102742856D01*
X124992857Y-102885713D01*
X125135714Y-103028571D01*
X125207143Y-103171428D01*
X126135714Y-101671428D02*
X126207143Y-101600000D01*
X126278571Y-101671428D01*
X126207143Y-101742857D01*
X126135714Y-101671428D01*
X126278571Y-101671428D01*
X124778571Y-100671428D02*
X124778571Y-100528571D01*
X124850000Y-100385714D01*
X124921429Y-100314285D01*
X125064286Y-100242856D01*
X125350000Y-100171428D01*
X125707143Y-100171428D01*
X125992857Y-100242856D01*
X126135714Y-100314285D01*
X126207143Y-100385714D01*
X126278571Y-100528571D01*
X126278571Y-100671428D01*
X126207143Y-100814285D01*
X126135714Y-100885714D01*
X125992857Y-100957142D01*
X125707143Y-101028571D01*
X125350000Y-101028571D01*
X125064286Y-100957142D01*
X124921429Y-100885714D01*
X124850000Y-100814285D01*
X124778571Y-100671428D01*
D11*
X182200000Y-89180953D02*
X182161905Y-89257144D01*
X182161905Y-89371429D01*
X182200000Y-89485715D01*
X182276190Y-89561906D01*
X182352381Y-89600001D01*
X182504762Y-89638096D01*
X182619048Y-89638096D01*
X182771429Y-89600001D01*
X182847619Y-89561906D01*
X182923810Y-89485715D01*
X182961905Y-89371429D01*
X182961905Y-89295239D01*
X182923810Y-89180953D01*
X182885714Y-89142858D01*
X182619048Y-89142858D01*
X182619048Y-89295239D01*
X182961905Y-88800001D02*
X182161905Y-88800001D01*
X182961905Y-88342858D01*
X182161905Y-88342858D01*
X182961905Y-87961906D02*
X182161905Y-87961906D01*
X182161905Y-87771430D01*
X182200000Y-87657144D01*
X182276190Y-87580953D01*
X182352381Y-87542858D01*
X182504762Y-87504763D01*
X182619048Y-87504763D01*
X182771429Y-87542858D01*
X182847619Y-87580953D01*
X182923810Y-87657144D01*
X182961905Y-87771430D01*
X182961905Y-87961906D01*
X182961905Y-86552382D02*
X182161905Y-86552382D01*
X182161905Y-86247620D01*
X182200000Y-86171429D01*
X182238095Y-86133334D01*
X182314286Y-86095239D01*
X182428571Y-86095239D01*
X182504762Y-86133334D01*
X182542857Y-86171429D01*
X182580952Y-86247620D01*
X182580952Y-86552382D01*
X182961905Y-85333334D02*
X182961905Y-85790477D01*
X182961905Y-85561906D02*
X182161905Y-85561906D01*
X182276190Y-85638096D01*
X182352381Y-85714287D01*
X182390476Y-85790477D01*
X182428571Y-84647620D02*
X182961905Y-84647620D01*
X182123810Y-84838096D02*
X182695238Y-85028572D01*
X182695238Y-84533334D01*
X182961905Y-83619048D02*
X182161905Y-83619048D01*
X182161905Y-83314286D01*
X182200000Y-83238095D01*
X182238095Y-83200000D01*
X182314286Y-83161905D01*
X182428571Y-83161905D01*
X182504762Y-83200000D01*
X182542857Y-83238095D01*
X182580952Y-83314286D01*
X182580952Y-83619048D01*
X182961905Y-82400000D02*
X182961905Y-82857143D01*
X182961905Y-82628572D02*
X182161905Y-82628572D01*
X182276190Y-82704762D01*
X182352381Y-82780953D01*
X182390476Y-82857143D01*
X182161905Y-81676190D02*
X182161905Y-82057143D01*
X182542857Y-82095238D01*
X182504762Y-82057143D01*
X182466667Y-81980952D01*
X182466667Y-81790476D01*
X182504762Y-81714286D01*
X182542857Y-81676190D01*
X182619048Y-81638095D01*
X182809524Y-81638095D01*
X182885714Y-81676190D01*
X182923810Y-81714286D01*
X182961905Y-81790476D01*
X182961905Y-81980952D01*
X182923810Y-82057143D01*
X182885714Y-82095238D01*
X182961905Y-80685714D02*
X182161905Y-80685714D01*
X182161905Y-80380952D01*
X182200000Y-80304761D01*
X182238095Y-80266666D01*
X182314286Y-80228571D01*
X182428571Y-80228571D01*
X182504762Y-80266666D01*
X182542857Y-80304761D01*
X182580952Y-80380952D01*
X182580952Y-80685714D01*
X182961905Y-79466666D02*
X182961905Y-79923809D01*
X182961905Y-79695238D02*
X182161905Y-79695238D01*
X182276190Y-79771428D01*
X182352381Y-79847619D01*
X182390476Y-79923809D01*
X182161905Y-78780952D02*
X182161905Y-78933333D01*
X182200000Y-79009523D01*
X182238095Y-79047618D01*
X182352381Y-79123809D01*
X182504762Y-79161904D01*
X182809524Y-79161904D01*
X182885714Y-79123809D01*
X182923810Y-79085714D01*
X182961905Y-79009523D01*
X182961905Y-78857142D01*
X182923810Y-78780952D01*
X182885714Y-78742856D01*
X182809524Y-78704761D01*
X182619048Y-78704761D01*
X182542857Y-78742856D01*
X182504762Y-78780952D01*
X182466667Y-78857142D01*
X182466667Y-79009523D01*
X182504762Y-79085714D01*
X182542857Y-79123809D01*
X182619048Y-79161904D01*
X182961905Y-77752380D02*
X182161905Y-77752380D01*
X182161905Y-77561904D01*
X182200000Y-77447618D01*
X182276190Y-77371427D01*
X182352381Y-77333332D01*
X182504762Y-77295237D01*
X182619048Y-77295237D01*
X182771429Y-77333332D01*
X182847619Y-77371427D01*
X182923810Y-77447618D01*
X182961905Y-77561904D01*
X182961905Y-77752380D01*
X182961905Y-76952380D02*
X182161905Y-76952380D01*
X182161905Y-76419047D02*
X182161905Y-76266666D01*
X182200000Y-76190475D01*
X182276190Y-76114285D01*
X182428571Y-76076190D01*
X182695238Y-76076190D01*
X182847619Y-76114285D01*
X182923810Y-76190475D01*
X182961905Y-76266666D01*
X182961905Y-76419047D01*
X182923810Y-76495237D01*
X182847619Y-76571428D01*
X182695238Y-76609523D01*
X182428571Y-76609523D01*
X182276190Y-76571428D01*
X182200000Y-76495237D01*
X182161905Y-76419047D01*
X182885714Y-74666666D02*
X182923810Y-74704761D01*
X182961905Y-74819047D01*
X182961905Y-74895237D01*
X182923810Y-75009523D01*
X182847619Y-75085714D01*
X182771429Y-75123809D01*
X182619048Y-75161904D01*
X182504762Y-75161904D01*
X182352381Y-75123809D01*
X182276190Y-75085714D01*
X182200000Y-75009523D01*
X182161905Y-74895237D01*
X182161905Y-74819047D01*
X182200000Y-74704761D01*
X182238095Y-74666666D01*
X182961905Y-73942856D02*
X182961905Y-74323809D01*
X182161905Y-74323809D01*
X182961905Y-73676190D02*
X182161905Y-73676190D01*
X182961905Y-73219047D02*
X182504762Y-73561904D01*
X182161905Y-73219047D02*
X182619048Y-73676190D01*
X182200000Y-71847618D02*
X182161905Y-71923809D01*
X182161905Y-72038094D01*
X182200000Y-72152380D01*
X182276190Y-72228571D01*
X182352381Y-72266666D01*
X182504762Y-72304761D01*
X182619048Y-72304761D01*
X182771429Y-72266666D01*
X182847619Y-72228571D01*
X182923810Y-72152380D01*
X182961905Y-72038094D01*
X182961905Y-71961904D01*
X182923810Y-71847618D01*
X182885714Y-71809523D01*
X182619048Y-71809523D01*
X182619048Y-71961904D01*
X182961905Y-71466666D02*
X182161905Y-71466666D01*
X182961905Y-71009523D01*
X182161905Y-71009523D01*
X182961905Y-70628571D02*
X182161905Y-70628571D01*
X182161905Y-70438095D01*
X182200000Y-70323809D01*
X182276190Y-70247618D01*
X182352381Y-70209523D01*
X182504762Y-70171428D01*
X182619048Y-70171428D01*
X182771429Y-70209523D01*
X182847619Y-70247618D01*
X182923810Y-70323809D01*
X182961905Y-70438095D01*
X182961905Y-70628571D01*
X174850000Y-106100000D02*
G75*
G03X174850000Y-106100000I-12250000J0D01*
G01*
D13*
X131100000Y-87950000D02*
X132100000Y-87950000D01*
X132100000Y-86250000D02*
X131100000Y-86250000D01*
X143900000Y-100560000D02*
X143900000Y-101980000D01*
X137300000Y-99800000D02*
X137300000Y-101980000D01*
X137300000Y-106400000D02*
X137300000Y-104220000D01*
X143900000Y-105640000D02*
X143900000Y-104220000D01*
X137300000Y-99800000D02*
X143140000Y-99800000D01*
X143140000Y-99800000D02*
X143900000Y-100560000D01*
X143900000Y-105640000D02*
X143140000Y-106400000D01*
X143140000Y-106400000D02*
X137300000Y-106400000D01*
X153100000Y-93250000D02*
X152100000Y-93250000D01*
X152100000Y-94950000D02*
X153100000Y-94950000D01*
X140180000Y-81340000D02*
X139250000Y-81340000D01*
X137020000Y-81340000D02*
X137950000Y-81340000D01*
X137020000Y-81340000D02*
X137020000Y-83500000D01*
X140180000Y-81340000D02*
X140180000Y-82800000D01*
X138000000Y-84220000D02*
X139200000Y-84220000D01*
X139200000Y-85980000D02*
X138000000Y-85980000D01*
X138000000Y-78220000D02*
X139200000Y-78220000D01*
X139200000Y-79980000D02*
X138000000Y-79980000D01*
X148200000Y-94980000D02*
X147000000Y-94980000D01*
X147000000Y-93220000D02*
X148200000Y-93220000D01*
X128450000Y-70900000D02*
X128450000Y-70650000D01*
X128450000Y-70650000D02*
X134750000Y-70650000D01*
X134750000Y-70650000D02*
X134750000Y-70900000D01*
X128450000Y-75400000D02*
X128450000Y-72800000D01*
X134750000Y-77300000D02*
X134750000Y-77550000D01*
X134750000Y-77550000D02*
X128450000Y-77550000D01*
X128450000Y-77550000D02*
X128450000Y-77300000D01*
X134750000Y-72800000D02*
X134750000Y-75400000D01*
D11*
X145350000Y-71830000D02*
X145350000Y-60090000D01*
X145350000Y-60090000D02*
X169850000Y-60090000D01*
X169850000Y-60090000D02*
X169850000Y-71830000D01*
X145350000Y-92350000D02*
X169850000Y-92350000D01*
X134350000Y-85305000D02*
X134350000Y-84650000D01*
X128850000Y-85305000D02*
X128850000Y-84555000D01*
X128850000Y-78895000D02*
X128850000Y-79645000D01*
X134350000Y-78895000D02*
X134350000Y-79645000D01*
X134350000Y-85305000D02*
X128850000Y-85305000D01*
X134350000Y-78895000D02*
X128850000Y-78895000D01*
X134350000Y-84650000D02*
X136100000Y-84650000D01*
D13*
X181400000Y-91800000D02*
X181400000Y-90400000D01*
X181400000Y-90400000D02*
X178600000Y-90400000D01*
X181400000Y-91800000D02*
X178600000Y-91800000D01*
X174000000Y-90220000D02*
X175200000Y-90220000D01*
X175200000Y-91980000D02*
X174000000Y-91980000D01*
D11*
X178330000Y-101020000D02*
X178330000Y-111180000D01*
X178330000Y-111180000D02*
X180870000Y-111180000D01*
X180870000Y-111180000D02*
X180870000Y-101020000D01*
X180870000Y-101020000D02*
X178330000Y-101020000D01*
D14*
G36*
X130271900Y-97461903D02*
X130383450Y-97517522D01*
X130481908Y-97619931D01*
X130509023Y-97657864D01*
X130538562Y-97707500D01*
X130557728Y-97761412D01*
X130568693Y-97833364D01*
X130573629Y-97937122D01*
X130574713Y-98074101D01*
X130569818Y-98261815D01*
X130552804Y-98402758D01*
X130520177Y-98507908D01*
X130468442Y-98588243D01*
X130394104Y-98654741D01*
X130388642Y-98658678D01*
X130315380Y-98698953D01*
X130227160Y-98718880D01*
X130114962Y-98723793D01*
X129932567Y-98723793D01*
X129932491Y-98900857D01*
X129930793Y-98999470D01*
X129920450Y-99057314D01*
X129893422Y-99092006D01*
X129841668Y-99121164D01*
X129829239Y-99127121D01*
X129771077Y-99155039D01*
X129726044Y-99172672D01*
X129692559Y-99174194D01*
X129669038Y-99153781D01*
X129653900Y-99105607D01*
X129645563Y-99023846D01*
X129642444Y-98902672D01*
X129642960Y-98736260D01*
X129645529Y-98518785D01*
X129646332Y-98453736D01*
X129649222Y-98229502D01*
X129651812Y-98082821D01*
X129932414Y-98082821D01*
X129933991Y-98207326D01*
X129941000Y-98288787D01*
X129956858Y-98342515D01*
X129984981Y-98383823D01*
X130004075Y-98403971D01*
X130082135Y-98462921D01*
X130151247Y-98467720D01*
X130222560Y-98419038D01*
X130224368Y-98417241D01*
X130253383Y-98379618D01*
X130271033Y-98328484D01*
X130279936Y-98249738D01*
X130282709Y-98129276D01*
X130282759Y-98102588D01*
X130276058Y-97936583D01*
X130254248Y-97821505D01*
X130214765Y-97751254D01*
X130155044Y-97719729D01*
X130120528Y-97716552D01*
X130038611Y-97731460D01*
X129982421Y-97780548D01*
X129948598Y-97870362D01*
X129933780Y-98007445D01*
X129932414Y-98082821D01*
X129651812Y-98082821D01*
X129652287Y-98055952D01*
X129656247Y-97925382D01*
X129661826Y-97830087D01*
X129669746Y-97762364D01*
X129680731Y-97714507D01*
X129695501Y-97678813D01*
X129714782Y-97647578D01*
X129723049Y-97635824D01*
X129832712Y-97524797D01*
X129971365Y-97461847D01*
X130131754Y-97444297D01*
X130271900Y-97461903D01*
X130271900Y-97461903D01*
G37*
X130271900Y-97461903D02*
X130383450Y-97517522D01*
X130481908Y-97619931D01*
X130509023Y-97657864D01*
X130538562Y-97707500D01*
X130557728Y-97761412D01*
X130568693Y-97833364D01*
X130573629Y-97937122D01*
X130574713Y-98074101D01*
X130569818Y-98261815D01*
X130552804Y-98402758D01*
X130520177Y-98507908D01*
X130468442Y-98588243D01*
X130394104Y-98654741D01*
X130388642Y-98658678D01*
X130315380Y-98698953D01*
X130227160Y-98718880D01*
X130114962Y-98723793D01*
X129932567Y-98723793D01*
X129932491Y-98900857D01*
X129930793Y-98999470D01*
X129920450Y-99057314D01*
X129893422Y-99092006D01*
X129841668Y-99121164D01*
X129829239Y-99127121D01*
X129771077Y-99155039D01*
X129726044Y-99172672D01*
X129692559Y-99174194D01*
X129669038Y-99153781D01*
X129653900Y-99105607D01*
X129645563Y-99023846D01*
X129642444Y-98902672D01*
X129642960Y-98736260D01*
X129645529Y-98518785D01*
X129646332Y-98453736D01*
X129649222Y-98229502D01*
X129651812Y-98082821D01*
X129932414Y-98082821D01*
X129933991Y-98207326D01*
X129941000Y-98288787D01*
X129956858Y-98342515D01*
X129984981Y-98383823D01*
X130004075Y-98403971D01*
X130082135Y-98462921D01*
X130151247Y-98467720D01*
X130222560Y-98419038D01*
X130224368Y-98417241D01*
X130253383Y-98379618D01*
X130271033Y-98328484D01*
X130279936Y-98249738D01*
X130282709Y-98129276D01*
X130282759Y-98102588D01*
X130276058Y-97936583D01*
X130254248Y-97821505D01*
X130214765Y-97751254D01*
X130155044Y-97719729D01*
X130120528Y-97716552D01*
X130038611Y-97731460D01*
X129982421Y-97780548D01*
X129948598Y-97870362D01*
X129933780Y-98007445D01*
X129932414Y-98082821D01*
X129651812Y-98082821D01*
X129652287Y-98055952D01*
X129656247Y-97925382D01*
X129661826Y-97830087D01*
X129669746Y-97762364D01*
X129680731Y-97714507D01*
X129695501Y-97678813D01*
X129714782Y-97647578D01*
X129723049Y-97635824D01*
X129832712Y-97524797D01*
X129971365Y-97461847D01*
X130131754Y-97444297D01*
X130271900Y-97461903D01*
G36*
X132517429Y-97477719D02*
X132611123Y-97531914D01*
X132676264Y-97585707D01*
X132723907Y-97642066D01*
X132756728Y-97710987D01*
X132777406Y-97802468D01*
X132788620Y-97926506D01*
X132793049Y-98093098D01*
X132793563Y-98212851D01*
X132793563Y-98653659D01*
X132669483Y-98709283D01*
X132545402Y-98764907D01*
X132530805Y-98282095D01*
X132524773Y-98101779D01*
X132518445Y-97970901D01*
X132510606Y-97880511D01*
X132500037Y-97821664D01*
X132485523Y-97785413D01*
X132465848Y-97762810D01*
X132459535Y-97757917D01*
X132363888Y-97719706D01*
X132267207Y-97734827D01*
X132209655Y-97774943D01*
X132186245Y-97803370D01*
X132170039Y-97840672D01*
X132159741Y-97897223D01*
X132154049Y-97983394D01*
X132151664Y-98109558D01*
X132151264Y-98241042D01*
X132151186Y-98405999D01*
X132148361Y-98522761D01*
X132138907Y-98601510D01*
X132118940Y-98652431D01*
X132084576Y-98685706D01*
X132031932Y-98711520D01*
X131961617Y-98738344D01*
X131884820Y-98767542D01*
X131893962Y-98249346D01*
X131897643Y-98062539D01*
X131901950Y-97924490D01*
X131908123Y-97825568D01*
X131917402Y-97756145D01*
X131931027Y-97706590D01*
X131950239Y-97667273D01*
X131973402Y-97632584D01*
X132085152Y-97521770D01*
X132221513Y-97457689D01*
X132369825Y-97442339D01*
X132517429Y-97477719D01*
X132517429Y-97477719D01*
G37*
X132517429Y-97477719D02*
X132611123Y-97531914D01*
X132676264Y-97585707D01*
X132723907Y-97642066D01*
X132756728Y-97710987D01*
X132777406Y-97802468D01*
X132788620Y-97926506D01*
X132793049Y-98093098D01*
X132793563Y-98212851D01*
X132793563Y-98653659D01*
X132669483Y-98709283D01*
X132545402Y-98764907D01*
X132530805Y-98282095D01*
X132524773Y-98101779D01*
X132518445Y-97970901D01*
X132510606Y-97880511D01*
X132500037Y-97821664D01*
X132485523Y-97785413D01*
X132465848Y-97762810D01*
X132459535Y-97757917D01*
X132363888Y-97719706D01*
X132267207Y-97734827D01*
X132209655Y-97774943D01*
X132186245Y-97803370D01*
X132170039Y-97840672D01*
X132159741Y-97897223D01*
X132154049Y-97983394D01*
X132151664Y-98109558D01*
X132151264Y-98241042D01*
X132151186Y-98405999D01*
X132148361Y-98522761D01*
X132138907Y-98601510D01*
X132118940Y-98652431D01*
X132084576Y-98685706D01*
X132031932Y-98711520D01*
X131961617Y-98738344D01*
X131884820Y-98767542D01*
X131893962Y-98249346D01*
X131897643Y-98062539D01*
X131901950Y-97924490D01*
X131908123Y-97825568D01*
X131917402Y-97756145D01*
X131931027Y-97706590D01*
X131950239Y-97667273D01*
X131973402Y-97632584D01*
X132085152Y-97521770D01*
X132221513Y-97457689D01*
X132369825Y-97442339D01*
X132517429Y-97477719D01*
G36*
X129148221Y-97466015D02*
X129285061Y-97537968D01*
X129386051Y-97653766D01*
X129421925Y-97728213D01*
X129449839Y-97839992D01*
X129464129Y-97981227D01*
X129465484Y-98135371D01*
X129454595Y-98285879D01*
X129432153Y-98416205D01*
X129398850Y-98509803D01*
X129388615Y-98525922D01*
X129267382Y-98646249D01*
X129123387Y-98718317D01*
X128967139Y-98739408D01*
X128809148Y-98706802D01*
X128765180Y-98687253D01*
X128679556Y-98627012D01*
X128604408Y-98547135D01*
X128597306Y-98537004D01*
X128568439Y-98488181D01*
X128549357Y-98435990D01*
X128538084Y-98367285D01*
X128532645Y-98268918D01*
X128531062Y-98127744D01*
X128531035Y-98096092D01*
X128531107Y-98086019D01*
X128822989Y-98086019D01*
X128824687Y-98219256D01*
X128831372Y-98307674D01*
X128845425Y-98364785D01*
X128869229Y-98404102D01*
X128881379Y-98417241D01*
X128951236Y-98467172D01*
X129019059Y-98464895D01*
X129087635Y-98421584D01*
X129128535Y-98375346D01*
X129152758Y-98307857D01*
X129166361Y-98201433D01*
X129167294Y-98189020D01*
X129169616Y-97996147D01*
X129145350Y-97852900D01*
X129094824Y-97760160D01*
X129018368Y-97718807D01*
X128991076Y-97716552D01*
X128919411Y-97727893D01*
X128870390Y-97767184D01*
X128840418Y-97842326D01*
X128825899Y-97961222D01*
X128822989Y-98086019D01*
X128531107Y-98086019D01*
X128532122Y-97945659D01*
X128536688Y-97840549D01*
X128546688Y-97767714D01*
X128564079Y-97714108D01*
X128590816Y-97666681D01*
X128596724Y-97657864D01*
X128696032Y-97539007D01*
X128804242Y-97470008D01*
X128935981Y-97442619D01*
X128980717Y-97441281D01*
X129148221Y-97466015D01*
X129148221Y-97466015D01*
G37*
X129148221Y-97466015D02*
X129285061Y-97537968D01*
X129386051Y-97653766D01*
X129421925Y-97728213D01*
X129449839Y-97839992D01*
X129464129Y-97981227D01*
X129465484Y-98135371D01*
X129454595Y-98285879D01*
X129432153Y-98416205D01*
X129398850Y-98509803D01*
X129388615Y-98525922D01*
X129267382Y-98646249D01*
X129123387Y-98718317D01*
X128967139Y-98739408D01*
X128809148Y-98706802D01*
X128765180Y-98687253D01*
X128679556Y-98627012D01*
X128604408Y-98547135D01*
X128597306Y-98537004D01*
X128568439Y-98488181D01*
X128549357Y-98435990D01*
X128538084Y-98367285D01*
X128532645Y-98268918D01*
X128531062Y-98127744D01*
X128531035Y-98096092D01*
X128531107Y-98086019D01*
X128822989Y-98086019D01*
X128824687Y-98219256D01*
X128831372Y-98307674D01*
X128845425Y-98364785D01*
X128869229Y-98404102D01*
X128881379Y-98417241D01*
X128951236Y-98467172D01*
X129019059Y-98464895D01*
X129087635Y-98421584D01*
X129128535Y-98375346D01*
X129152758Y-98307857D01*
X129166361Y-98201433D01*
X129167294Y-98189020D01*
X129169616Y-97996147D01*
X129145350Y-97852900D01*
X129094824Y-97760160D01*
X129018368Y-97718807D01*
X128991076Y-97716552D01*
X128919411Y-97727893D01*
X128870390Y-97767184D01*
X128840418Y-97842326D01*
X128825899Y-97961222D01*
X128822989Y-98086019D01*
X128531107Y-98086019D01*
X128532122Y-97945659D01*
X128536688Y-97840549D01*
X128546688Y-97767714D01*
X128564079Y-97714108D01*
X128590816Y-97666681D01*
X128596724Y-97657864D01*
X128696032Y-97539007D01*
X128804242Y-97470008D01*
X128935981Y-97442619D01*
X128980717Y-97441281D01*
X129148221Y-97466015D01*
G36*
X131415552Y-97484676D02*
X131530658Y-97562111D01*
X131619611Y-97673949D01*
X131672749Y-97816265D01*
X131683497Y-97921015D01*
X131682276Y-97964726D01*
X131672056Y-97998194D01*
X131643961Y-98028179D01*
X131589116Y-98061440D01*
X131498645Y-98104738D01*
X131363672Y-98164833D01*
X131362989Y-98165134D01*
X131238751Y-98222037D01*
X131136873Y-98272565D01*
X131067767Y-98311280D01*
X131041846Y-98332740D01*
X131041839Y-98332913D01*
X131064685Y-98379644D01*
X131118109Y-98431154D01*
X131179442Y-98468261D01*
X131210515Y-98475632D01*
X131295289Y-98450138D01*
X131368293Y-98386291D01*
X131403913Y-98316094D01*
X131438180Y-98264343D01*
X131505303Y-98205409D01*
X131584208Y-98154496D01*
X131653821Y-98126809D01*
X131668377Y-98125287D01*
X131684763Y-98150321D01*
X131685750Y-98214311D01*
X131673708Y-98300593D01*
X131651007Y-98392501D01*
X131620014Y-98473369D01*
X131618448Y-98476509D01*
X131525181Y-98606734D01*
X131404304Y-98695311D01*
X131267027Y-98738786D01*
X131124560Y-98733706D01*
X130988112Y-98676616D01*
X130982045Y-98672602D01*
X130874710Y-98575326D01*
X130804132Y-98448409D01*
X130765074Y-98281526D01*
X130759832Y-98234639D01*
X130750548Y-98013329D01*
X130761678Y-97910124D01*
X131041839Y-97910124D01*
X131045479Y-97974503D01*
X131065389Y-97993291D01*
X131115026Y-97979235D01*
X131193267Y-97946009D01*
X131280726Y-97904359D01*
X131282899Y-97903256D01*
X131357030Y-97864265D01*
X131386781Y-97838244D01*
X131379445Y-97810965D01*
X131348553Y-97775121D01*
X131269960Y-97723251D01*
X131185323Y-97719439D01*
X131109403Y-97757189D01*
X131056965Y-97830001D01*
X131041839Y-97910124D01*
X130761678Y-97910124D01*
X130769644Y-97836261D01*
X130818634Y-97695829D01*
X130886836Y-97597447D01*
X131009935Y-97498030D01*
X131145528Y-97448711D01*
X131283955Y-97445568D01*
X131415552Y-97484676D01*
X131415552Y-97484676D01*
G37*
X131415552Y-97484676D02*
X131530658Y-97562111D01*
X131619611Y-97673949D01*
X131672749Y-97816265D01*
X131683497Y-97921015D01*
X131682276Y-97964726D01*
X131672056Y-97998194D01*
X131643961Y-98028179D01*
X131589116Y-98061440D01*
X131498645Y-98104738D01*
X131363672Y-98164833D01*
X131362989Y-98165134D01*
X131238751Y-98222037D01*
X131136873Y-98272565D01*
X131067767Y-98311280D01*
X131041846Y-98332740D01*
X131041839Y-98332913D01*
X131064685Y-98379644D01*
X131118109Y-98431154D01*
X131179442Y-98468261D01*
X131210515Y-98475632D01*
X131295289Y-98450138D01*
X131368293Y-98386291D01*
X131403913Y-98316094D01*
X131438180Y-98264343D01*
X131505303Y-98205409D01*
X131584208Y-98154496D01*
X131653821Y-98126809D01*
X131668377Y-98125287D01*
X131684763Y-98150321D01*
X131685750Y-98214311D01*
X131673708Y-98300593D01*
X131651007Y-98392501D01*
X131620014Y-98473369D01*
X131618448Y-98476509D01*
X131525181Y-98606734D01*
X131404304Y-98695311D01*
X131267027Y-98738786D01*
X131124560Y-98733706D01*
X130988112Y-98676616D01*
X130982045Y-98672602D01*
X130874710Y-98575326D01*
X130804132Y-98448409D01*
X130765074Y-98281526D01*
X130759832Y-98234639D01*
X130750548Y-98013329D01*
X130761678Y-97910124D01*
X131041839Y-97910124D01*
X131045479Y-97974503D01*
X131065389Y-97993291D01*
X131115026Y-97979235D01*
X131193267Y-97946009D01*
X131280726Y-97904359D01*
X131282899Y-97903256D01*
X131357030Y-97864265D01*
X131386781Y-97838244D01*
X131379445Y-97810965D01*
X131348553Y-97775121D01*
X131269960Y-97723251D01*
X131185323Y-97719439D01*
X131109403Y-97757189D01*
X131056965Y-97830001D01*
X131041839Y-97910124D01*
X130761678Y-97910124D01*
X130769644Y-97836261D01*
X130818634Y-97695829D01*
X130886836Y-97597447D01*
X131009935Y-97498030D01*
X131145528Y-97448711D01*
X131283955Y-97445568D01*
X131415552Y-97484676D01*
G36*
X133844598Y-97323857D02*
X133853154Y-97443188D01*
X133862981Y-97513506D01*
X133876599Y-97544179D01*
X133896527Y-97544571D01*
X133902989Y-97540910D01*
X133988940Y-97514398D01*
X134100745Y-97515946D01*
X134214414Y-97543199D01*
X134285510Y-97578455D01*
X134358405Y-97634778D01*
X134411693Y-97698519D01*
X134448275Y-97779510D01*
X134471050Y-97887586D01*
X134482919Y-98032580D01*
X134486782Y-98224326D01*
X134486851Y-98261109D01*
X134486897Y-98674288D01*
X134394954Y-98706339D01*
X134329652Y-98728144D01*
X134293824Y-98738297D01*
X134292770Y-98738391D01*
X134289242Y-98710860D01*
X134286239Y-98634923D01*
X134283990Y-98520565D01*
X134282724Y-98377769D01*
X134282529Y-98290951D01*
X134282123Y-98119773D01*
X134280032Y-97997088D01*
X134274947Y-97913000D01*
X134265560Y-97857614D01*
X134250561Y-97821032D01*
X134228642Y-97793359D01*
X134214957Y-97780032D01*
X134120949Y-97726328D01*
X134018364Y-97722307D01*
X133925290Y-97767725D01*
X133908078Y-97784123D01*
X133882832Y-97814957D01*
X133865320Y-97851531D01*
X133854142Y-97904415D01*
X133847896Y-97984177D01*
X133845182Y-98101385D01*
X133844598Y-98262991D01*
X133844598Y-98674288D01*
X133752655Y-98706339D01*
X133687353Y-98728144D01*
X133651525Y-98738297D01*
X133650471Y-98738391D01*
X133647775Y-98710448D01*
X133645345Y-98631630D01*
X133643278Y-98509453D01*
X133641671Y-98351432D01*
X133640623Y-98165083D01*
X133640231Y-97957920D01*
X133640230Y-97948706D01*
X133640230Y-97159020D01*
X133735115Y-97118997D01*
X133830000Y-97078973D01*
X133844598Y-97323857D01*
X133844598Y-97323857D01*
G37*
X133844598Y-97323857D02*
X133853154Y-97443188D01*
X133862981Y-97513506D01*
X133876599Y-97544179D01*
X133896527Y-97544571D01*
X133902989Y-97540910D01*
X133988940Y-97514398D01*
X134100745Y-97515946D01*
X134214414Y-97543199D01*
X134285510Y-97578455D01*
X134358405Y-97634778D01*
X134411693Y-97698519D01*
X134448275Y-97779510D01*
X134471050Y-97887586D01*
X134482919Y-98032580D01*
X134486782Y-98224326D01*
X134486851Y-98261109D01*
X134486897Y-98674288D01*
X134394954Y-98706339D01*
X134329652Y-98728144D01*
X134293824Y-98738297D01*
X134292770Y-98738391D01*
X134289242Y-98710860D01*
X134286239Y-98634923D01*
X134283990Y-98520565D01*
X134282724Y-98377769D01*
X134282529Y-98290951D01*
X134282123Y-98119773D01*
X134280032Y-97997088D01*
X134274947Y-97913000D01*
X134265560Y-97857614D01*
X134250561Y-97821032D01*
X134228642Y-97793359D01*
X134214957Y-97780032D01*
X134120949Y-97726328D01*
X134018364Y-97722307D01*
X133925290Y-97767725D01*
X133908078Y-97784123D01*
X133882832Y-97814957D01*
X133865320Y-97851531D01*
X133854142Y-97904415D01*
X133847896Y-97984177D01*
X133845182Y-98101385D01*
X133844598Y-98262991D01*
X133844598Y-98674288D01*
X133752655Y-98706339D01*
X133687353Y-98728144D01*
X133651525Y-98738297D01*
X133650471Y-98738391D01*
X133647775Y-98710448D01*
X133645345Y-98631630D01*
X133643278Y-98509453D01*
X133641671Y-98351432D01*
X133640623Y-98165083D01*
X133640231Y-97957920D01*
X133640230Y-97948706D01*
X133640230Y-97159020D01*
X133735115Y-97118997D01*
X133830000Y-97078973D01*
X133844598Y-97323857D01*
G36*
X135179944Y-97524360D02*
X135294343Y-97566842D01*
X135295652Y-97567658D01*
X135366403Y-97619730D01*
X135418636Y-97680584D01*
X135455371Y-97759887D01*
X135479634Y-97867309D01*
X135494445Y-98012517D01*
X135502829Y-98205179D01*
X135503564Y-98232628D01*
X135514120Y-98646521D01*
X135425291Y-98692456D01*
X135361018Y-98723498D01*
X135322210Y-98738206D01*
X135320415Y-98738391D01*
X135313700Y-98711250D01*
X135308365Y-98638041D01*
X135305083Y-98531081D01*
X135304368Y-98444469D01*
X135304351Y-98304162D01*
X135297937Y-98216051D01*
X135275580Y-98174025D01*
X135227732Y-98171975D01*
X135144849Y-98203790D01*
X135019713Y-98262272D01*
X134927697Y-98310845D01*
X134880371Y-98352986D01*
X134866458Y-98398916D01*
X134866437Y-98401189D01*
X134889395Y-98480311D01*
X134957370Y-98523055D01*
X135061398Y-98529246D01*
X135136330Y-98528172D01*
X135175839Y-98549753D01*
X135200478Y-98601591D01*
X135214659Y-98667632D01*
X135194223Y-98705104D01*
X135186528Y-98710467D01*
X135114083Y-98732006D01*
X135012633Y-98735055D01*
X134908157Y-98720778D01*
X134834125Y-98694688D01*
X134731772Y-98607785D01*
X134673591Y-98486816D01*
X134662069Y-98392308D01*
X134670862Y-98307062D01*
X134702680Y-98237476D01*
X134765684Y-98175672D01*
X134868031Y-98113772D01*
X135017882Y-98043897D01*
X135027012Y-98039948D01*
X135161997Y-97977588D01*
X135245294Y-97926446D01*
X135280997Y-97880488D01*
X135273203Y-97833683D01*
X135226007Y-97779998D01*
X135211894Y-97767644D01*
X135117359Y-97719741D01*
X135019406Y-97721758D01*
X134934097Y-97768724D01*
X134877496Y-97855669D01*
X134872237Y-97872734D01*
X134821023Y-97955504D01*
X134756037Y-97995372D01*
X134662069Y-98034882D01*
X134662069Y-97932658D01*
X134690653Y-97784072D01*
X134775495Y-97647784D01*
X134819645Y-97602191D01*
X134920005Y-97543674D01*
X135047635Y-97517184D01*
X135179944Y-97524360D01*
X135179944Y-97524360D01*
G37*
X135179944Y-97524360D02*
X135294343Y-97566842D01*
X135295652Y-97567658D01*
X135366403Y-97619730D01*
X135418636Y-97680584D01*
X135455371Y-97759887D01*
X135479634Y-97867309D01*
X135494445Y-98012517D01*
X135502829Y-98205179D01*
X135503564Y-98232628D01*
X135514120Y-98646521D01*
X135425291Y-98692456D01*
X135361018Y-98723498D01*
X135322210Y-98738206D01*
X135320415Y-98738391D01*
X135313700Y-98711250D01*
X135308365Y-98638041D01*
X135305083Y-98531081D01*
X135304368Y-98444469D01*
X135304351Y-98304162D01*
X135297937Y-98216051D01*
X135275580Y-98174025D01*
X135227732Y-98171975D01*
X135144849Y-98203790D01*
X135019713Y-98262272D01*
X134927697Y-98310845D01*
X134880371Y-98352986D01*
X134866458Y-98398916D01*
X134866437Y-98401189D01*
X134889395Y-98480311D01*
X134957370Y-98523055D01*
X135061398Y-98529246D01*
X135136330Y-98528172D01*
X135175839Y-98549753D01*
X135200478Y-98601591D01*
X135214659Y-98667632D01*
X135194223Y-98705104D01*
X135186528Y-98710467D01*
X135114083Y-98732006D01*
X135012633Y-98735055D01*
X134908157Y-98720778D01*
X134834125Y-98694688D01*
X134731772Y-98607785D01*
X134673591Y-98486816D01*
X134662069Y-98392308D01*
X134670862Y-98307062D01*
X134702680Y-98237476D01*
X134765684Y-98175672D01*
X134868031Y-98113772D01*
X135017882Y-98043897D01*
X135027012Y-98039948D01*
X135161997Y-97977588D01*
X135245294Y-97926446D01*
X135280997Y-97880488D01*
X135273203Y-97833683D01*
X135226007Y-97779998D01*
X135211894Y-97767644D01*
X135117359Y-97719741D01*
X135019406Y-97721758D01*
X134934097Y-97768724D01*
X134877496Y-97855669D01*
X134872237Y-97872734D01*
X134821023Y-97955504D01*
X134756037Y-97995372D01*
X134662069Y-98034882D01*
X134662069Y-97932658D01*
X134690653Y-97784072D01*
X134775495Y-97647784D01*
X134819645Y-97602191D01*
X134920005Y-97543674D01*
X135047635Y-97517184D01*
X135179944Y-97524360D01*
G36*
X136165943Y-97521920D02*
X136298565Y-97570859D01*
X136406010Y-97657419D01*
X136448032Y-97718352D01*
X136493843Y-97830161D01*
X136492891Y-97911006D01*
X136444808Y-97965378D01*
X136427017Y-97974624D01*
X136350204Y-98003450D01*
X136310976Y-97996065D01*
X136297689Y-97947658D01*
X136297012Y-97920920D01*
X136272686Y-97822548D01*
X136209281Y-97753734D01*
X136121154Y-97720498D01*
X136022663Y-97728861D01*
X135942602Y-97772296D01*
X135915561Y-97797072D01*
X135896394Y-97827129D01*
X135883446Y-97872565D01*
X135875064Y-97943476D01*
X135869593Y-98049960D01*
X135865378Y-98202112D01*
X135864287Y-98250287D01*
X135860307Y-98415095D01*
X135855781Y-98531088D01*
X135848995Y-98607833D01*
X135838231Y-98654893D01*
X135821773Y-98681835D01*
X135797906Y-98698223D01*
X135782626Y-98705463D01*
X135717733Y-98730220D01*
X135679534Y-98738391D01*
X135666912Y-98711103D01*
X135659208Y-98628603D01*
X135656380Y-98489941D01*
X135658386Y-98294162D01*
X135659011Y-98263965D01*
X135663421Y-98085349D01*
X135668635Y-97954923D01*
X135676055Y-97862492D01*
X135687082Y-97797858D01*
X135703117Y-97750825D01*
X135725561Y-97711196D01*
X135737302Y-97694215D01*
X135804619Y-97619080D01*
X135879910Y-97560638D01*
X135889128Y-97555536D01*
X136024133Y-97515260D01*
X136165943Y-97521920D01*
X136165943Y-97521920D01*
G37*
X136165943Y-97521920D02*
X136298565Y-97570859D01*
X136406010Y-97657419D01*
X136448032Y-97718352D01*
X136493843Y-97830161D01*
X136492891Y-97911006D01*
X136444808Y-97965378D01*
X136427017Y-97974624D01*
X136350204Y-98003450D01*
X136310976Y-97996065D01*
X136297689Y-97947658D01*
X136297012Y-97920920D01*
X136272686Y-97822548D01*
X136209281Y-97753734D01*
X136121154Y-97720498D01*
X136022663Y-97728861D01*
X135942602Y-97772296D01*
X135915561Y-97797072D01*
X135896394Y-97827129D01*
X135883446Y-97872565D01*
X135875064Y-97943476D01*
X135869593Y-98049960D01*
X135865378Y-98202112D01*
X135864287Y-98250287D01*
X135860307Y-98415095D01*
X135855781Y-98531088D01*
X135848995Y-98607833D01*
X135838231Y-98654893D01*
X135821773Y-98681835D01*
X135797906Y-98698223D01*
X135782626Y-98705463D01*
X135717733Y-98730220D01*
X135679534Y-98738391D01*
X135666912Y-98711103D01*
X135659208Y-98628603D01*
X135656380Y-98489941D01*
X135658386Y-98294162D01*
X135659011Y-98263965D01*
X135663421Y-98085349D01*
X135668635Y-97954923D01*
X135676055Y-97862492D01*
X135687082Y-97797858D01*
X135703117Y-97750825D01*
X135725561Y-97711196D01*
X135737302Y-97694215D01*
X135804619Y-97619080D01*
X135879910Y-97560638D01*
X135889128Y-97555536D01*
X136024133Y-97515260D01*
X136165943Y-97521920D01*
G36*
X137493914Y-97754455D02*
X137493543Y-97972661D01*
X137492108Y-98140519D01*
X137489002Y-98266070D01*
X137483622Y-98357355D01*
X137475362Y-98422415D01*
X137463616Y-98469291D01*
X137447781Y-98506024D01*
X137435790Y-98526991D01*
X137336490Y-98640694D01*
X137210588Y-98711965D01*
X137071291Y-98737538D01*
X136931805Y-98714150D01*
X136848743Y-98672119D01*
X136761545Y-98599411D01*
X136702117Y-98510612D01*
X136666261Y-98394320D01*
X136649781Y-98239135D01*
X136647447Y-98125287D01*
X136647761Y-98117106D01*
X136851724Y-98117106D01*
X136852970Y-98247657D01*
X136858678Y-98334080D01*
X136871804Y-98390618D01*
X136895306Y-98431514D01*
X136923386Y-98462362D01*
X137017688Y-98521905D01*
X137118940Y-98526992D01*
X137214636Y-98477279D01*
X137222084Y-98470543D01*
X137253874Y-98435502D01*
X137273808Y-98393811D01*
X137284600Y-98331762D01*
X137288965Y-98235644D01*
X137289655Y-98129379D01*
X137288159Y-97995880D01*
X137281964Y-97906822D01*
X137268514Y-97848293D01*
X137245251Y-97806382D01*
X137226175Y-97784123D01*
X137137563Y-97727985D01*
X137035508Y-97721235D01*
X136938095Y-97764114D01*
X136919296Y-97780032D01*
X136887293Y-97815382D01*
X136867318Y-97857502D01*
X136856593Y-97920251D01*
X136852339Y-98017487D01*
X136851724Y-98117106D01*
X136647761Y-98117106D01*
X136654504Y-97941947D01*
X136678472Y-97804195D01*
X136723548Y-97700632D01*
X136793928Y-97619856D01*
X136848743Y-97578455D01*
X136948376Y-97533728D01*
X137063855Y-97512967D01*
X137171199Y-97518525D01*
X137231264Y-97540943D01*
X137254835Y-97547323D01*
X137270477Y-97523535D01*
X137281395Y-97459788D01*
X137289655Y-97362687D01*
X137298699Y-97254541D01*
X137311261Y-97189475D01*
X137334119Y-97152268D01*
X137374051Y-97127699D01*
X137399138Y-97116819D01*
X137494023Y-97077072D01*
X137493914Y-97754455D01*
X137493914Y-97754455D01*
G37*
X137493914Y-97754455D02*
X137493543Y-97972661D01*
X137492108Y-98140519D01*
X137489002Y-98266070D01*
X137483622Y-98357355D01*
X137475362Y-98422415D01*
X137463616Y-98469291D01*
X137447781Y-98506024D01*
X137435790Y-98526991D01*
X137336490Y-98640694D01*
X137210588Y-98711965D01*
X137071291Y-98737538D01*
X136931805Y-98714150D01*
X136848743Y-98672119D01*
X136761545Y-98599411D01*
X136702117Y-98510612D01*
X136666261Y-98394320D01*
X136649781Y-98239135D01*
X136647447Y-98125287D01*
X136647761Y-98117106D01*
X136851724Y-98117106D01*
X136852970Y-98247657D01*
X136858678Y-98334080D01*
X136871804Y-98390618D01*
X136895306Y-98431514D01*
X136923386Y-98462362D01*
X137017688Y-98521905D01*
X137118940Y-98526992D01*
X137214636Y-98477279D01*
X137222084Y-98470543D01*
X137253874Y-98435502D01*
X137273808Y-98393811D01*
X137284600Y-98331762D01*
X137288965Y-98235644D01*
X137289655Y-98129379D01*
X137288159Y-97995880D01*
X137281964Y-97906822D01*
X137268514Y-97848293D01*
X137245251Y-97806382D01*
X137226175Y-97784123D01*
X137137563Y-97727985D01*
X137035508Y-97721235D01*
X136938095Y-97764114D01*
X136919296Y-97780032D01*
X136887293Y-97815382D01*
X136867318Y-97857502D01*
X136856593Y-97920251D01*
X136852339Y-98017487D01*
X136851724Y-98117106D01*
X136647761Y-98117106D01*
X136654504Y-97941947D01*
X136678472Y-97804195D01*
X136723548Y-97700632D01*
X136793928Y-97619856D01*
X136848743Y-97578455D01*
X136948376Y-97533728D01*
X137063855Y-97512967D01*
X137171199Y-97518525D01*
X137231264Y-97540943D01*
X137254835Y-97547323D01*
X137270477Y-97523535D01*
X137281395Y-97459788D01*
X137289655Y-97362687D01*
X137298699Y-97254541D01*
X137311261Y-97189475D01*
X137334119Y-97152268D01*
X137374051Y-97127699D01*
X137399138Y-97116819D01*
X137494023Y-97077072D01*
X137493914Y-97754455D01*
G36*
X138680124Y-97539840D02*
X138684579Y-97616653D01*
X138688071Y-97733391D01*
X138690315Y-97880821D01*
X138691035Y-98035455D01*
X138691035Y-98558727D01*
X138598645Y-98651117D01*
X138534978Y-98708047D01*
X138479089Y-98731107D01*
X138402702Y-98729647D01*
X138372380Y-98725934D01*
X138277610Y-98715126D01*
X138199222Y-98708933D01*
X138180115Y-98708361D01*
X138115699Y-98712102D01*
X138023571Y-98721494D01*
X137987850Y-98725934D01*
X137900114Y-98732801D01*
X137841153Y-98717885D01*
X137782690Y-98671835D01*
X137761585Y-98651117D01*
X137669195Y-98558727D01*
X137669195Y-97579947D01*
X137743558Y-97546066D01*
X137807590Y-97520970D01*
X137845052Y-97512184D01*
X137854657Y-97539950D01*
X137863635Y-97617530D01*
X137871386Y-97736348D01*
X137877314Y-97887828D01*
X137880173Y-98015805D01*
X137888161Y-98519425D01*
X137957848Y-98529278D01*
X138021229Y-98522389D01*
X138052286Y-98500083D01*
X138060967Y-98458379D01*
X138068378Y-98369544D01*
X138073931Y-98244834D01*
X138077036Y-98095507D01*
X138077484Y-98018661D01*
X138077931Y-97576287D01*
X138169874Y-97544235D01*
X138234949Y-97522443D01*
X138270347Y-97512281D01*
X138271368Y-97512184D01*
X138274920Y-97539809D01*
X138278823Y-97616411D01*
X138282751Y-97732579D01*
X138286376Y-97878904D01*
X138288908Y-98015805D01*
X138296897Y-98519425D01*
X138472069Y-98519425D01*
X138480107Y-98059965D01*
X138488146Y-97600505D01*
X138573543Y-97556344D01*
X138636593Y-97526019D01*
X138673910Y-97512258D01*
X138674987Y-97512184D01*
X138680124Y-97539840D01*
X138680124Y-97539840D01*
G37*
X138680124Y-97539840D02*
X138684579Y-97616653D01*
X138688071Y-97733391D01*
X138690315Y-97880821D01*
X138691035Y-98035455D01*
X138691035Y-98558727D01*
X138598645Y-98651117D01*
X138534978Y-98708047D01*
X138479089Y-98731107D01*
X138402702Y-98729647D01*
X138372380Y-98725934D01*
X138277610Y-98715126D01*
X138199222Y-98708933D01*
X138180115Y-98708361D01*
X138115699Y-98712102D01*
X138023571Y-98721494D01*
X137987850Y-98725934D01*
X137900114Y-98732801D01*
X137841153Y-98717885D01*
X137782690Y-98671835D01*
X137761585Y-98651117D01*
X137669195Y-98558727D01*
X137669195Y-97579947D01*
X137743558Y-97546066D01*
X137807590Y-97520970D01*
X137845052Y-97512184D01*
X137854657Y-97539950D01*
X137863635Y-97617530D01*
X137871386Y-97736348D01*
X137877314Y-97887828D01*
X137880173Y-98015805D01*
X137888161Y-98519425D01*
X137957848Y-98529278D01*
X138021229Y-98522389D01*
X138052286Y-98500083D01*
X138060967Y-98458379D01*
X138068378Y-98369544D01*
X138073931Y-98244834D01*
X138077036Y-98095507D01*
X138077484Y-98018661D01*
X138077931Y-97576287D01*
X138169874Y-97544235D01*
X138234949Y-97522443D01*
X138270347Y-97512281D01*
X138271368Y-97512184D01*
X138274920Y-97539809D01*
X138278823Y-97616411D01*
X138282751Y-97732579D01*
X138286376Y-97878904D01*
X138288908Y-98015805D01*
X138296897Y-98519425D01*
X138472069Y-98519425D01*
X138480107Y-98059965D01*
X138488146Y-97600505D01*
X138573543Y-97556344D01*
X138636593Y-97526019D01*
X138673910Y-97512258D01*
X138674987Y-97512184D01*
X138680124Y-97539840D01*
G36*
X139414406Y-97535156D02*
X139498469Y-97573393D01*
X139564450Y-97619726D01*
X139612794Y-97671532D01*
X139646172Y-97738363D01*
X139667253Y-97829769D01*
X139678707Y-97955301D01*
X139683203Y-98124508D01*
X139683678Y-98235933D01*
X139683678Y-98670627D01*
X139609316Y-98704509D01*
X139550746Y-98729272D01*
X139521730Y-98738391D01*
X139516179Y-98711257D01*
X139511775Y-98638094D01*
X139509078Y-98531263D01*
X139508506Y-98446437D01*
X139506046Y-98323887D01*
X139499412Y-98226668D01*
X139489726Y-98167134D01*
X139482032Y-98154483D01*
X139430311Y-98167402D01*
X139349117Y-98200539D01*
X139255102Y-98245461D01*
X139164917Y-98293735D01*
X139095215Y-98336928D01*
X139062648Y-98366608D01*
X139062519Y-98366929D01*
X139065320Y-98421857D01*
X139090439Y-98474292D01*
X139134541Y-98516881D01*
X139198909Y-98531126D01*
X139253921Y-98529466D01*
X139331835Y-98528245D01*
X139372732Y-98546498D01*
X139397295Y-98594726D01*
X139400392Y-98603820D01*
X139411040Y-98672598D01*
X139382565Y-98714360D01*
X139308344Y-98734263D01*
X139228168Y-98737944D01*
X139083890Y-98710658D01*
X139009203Y-98671690D01*
X138916963Y-98580148D01*
X138868043Y-98467782D01*
X138863654Y-98349051D01*
X138905001Y-98238411D01*
X138967197Y-98169080D01*
X139029294Y-98130265D01*
X139126895Y-98081125D01*
X139240632Y-98031292D01*
X139259590Y-98023677D01*
X139384521Y-97968545D01*
X139456539Y-97919954D01*
X139479700Y-97871647D01*
X139458064Y-97817370D01*
X139420920Y-97774943D01*
X139333127Y-97722702D01*
X139236530Y-97718784D01*
X139147944Y-97759041D01*
X139084186Y-97839326D01*
X139075817Y-97860040D01*
X139027096Y-97936225D01*
X138955965Y-97992785D01*
X138866207Y-98039201D01*
X138866207Y-97907584D01*
X138871490Y-97827168D01*
X138894142Y-97763786D01*
X138944367Y-97696163D01*
X138992582Y-97644076D01*
X139067554Y-97570322D01*
X139125806Y-97530702D01*
X139188372Y-97514810D01*
X139259193Y-97512184D01*
X139414406Y-97535156D01*
X139414406Y-97535156D01*
G37*
X139414406Y-97535156D02*
X139498469Y-97573393D01*
X139564450Y-97619726D01*
X139612794Y-97671532D01*
X139646172Y-97738363D01*
X139667253Y-97829769D01*
X139678707Y-97955301D01*
X139683203Y-98124508D01*
X139683678Y-98235933D01*
X139683678Y-98670627D01*
X139609316Y-98704509D01*
X139550746Y-98729272D01*
X139521730Y-98738391D01*
X139516179Y-98711257D01*
X139511775Y-98638094D01*
X139509078Y-98531263D01*
X139508506Y-98446437D01*
X139506046Y-98323887D01*
X139499412Y-98226668D01*
X139489726Y-98167134D01*
X139482032Y-98154483D01*
X139430311Y-98167402D01*
X139349117Y-98200539D01*
X139255102Y-98245461D01*
X139164917Y-98293735D01*
X139095215Y-98336928D01*
X139062648Y-98366608D01*
X139062519Y-98366929D01*
X139065320Y-98421857D01*
X139090439Y-98474292D01*
X139134541Y-98516881D01*
X139198909Y-98531126D01*
X139253921Y-98529466D01*
X139331835Y-98528245D01*
X139372732Y-98546498D01*
X139397295Y-98594726D01*
X139400392Y-98603820D01*
X139411040Y-98672598D01*
X139382565Y-98714360D01*
X139308344Y-98734263D01*
X139228168Y-98737944D01*
X139083890Y-98710658D01*
X139009203Y-98671690D01*
X138916963Y-98580148D01*
X138868043Y-98467782D01*
X138863654Y-98349051D01*
X138905001Y-98238411D01*
X138967197Y-98169080D01*
X139029294Y-98130265D01*
X139126895Y-98081125D01*
X139240632Y-98031292D01*
X139259590Y-98023677D01*
X139384521Y-97968545D01*
X139456539Y-97919954D01*
X139479700Y-97871647D01*
X139458064Y-97817370D01*
X139420920Y-97774943D01*
X139333127Y-97722702D01*
X139236530Y-97718784D01*
X139147944Y-97759041D01*
X139084186Y-97839326D01*
X139075817Y-97860040D01*
X139027096Y-97936225D01*
X138955965Y-97992785D01*
X138866207Y-98039201D01*
X138866207Y-97907584D01*
X138871490Y-97827168D01*
X138894142Y-97763786D01*
X138944367Y-97696163D01*
X138992582Y-97644076D01*
X139067554Y-97570322D01*
X139125806Y-97530702D01*
X139188372Y-97514810D01*
X139259193Y-97512184D01*
X139414406Y-97535156D01*
G36*
X140435690Y-97540018D02*
X140470585Y-97555269D01*
X140553877Y-97621235D01*
X140625103Y-97716618D01*
X140669153Y-97818406D01*
X140676322Y-97868587D01*
X140652285Y-97938647D01*
X140599561Y-97975717D01*
X140543031Y-97998164D01*
X140517146Y-98002300D01*
X140504542Y-97972283D01*
X140479654Y-97906961D01*
X140468735Y-97877445D01*
X140407508Y-97775348D01*
X140318861Y-97724423D01*
X140205193Y-97725989D01*
X140196774Y-97727994D01*
X140136088Y-97756767D01*
X140091474Y-97812859D01*
X140061002Y-97903163D01*
X140042744Y-98034571D01*
X140034771Y-98213974D01*
X140034023Y-98309433D01*
X140033652Y-98459913D01*
X140031223Y-98562495D01*
X140024760Y-98627672D01*
X140012288Y-98665938D01*
X139991833Y-98687785D01*
X139961419Y-98703707D01*
X139959661Y-98704509D01*
X139901091Y-98729272D01*
X139872075Y-98738391D01*
X139867616Y-98710822D01*
X139863799Y-98634620D01*
X139860899Y-98519541D01*
X139859191Y-98375341D01*
X139858851Y-98269814D01*
X139860588Y-98065613D01*
X139867382Y-97910697D01*
X139881607Y-97796024D01*
X139905638Y-97712551D01*
X139941848Y-97651236D01*
X139992612Y-97603034D01*
X140042739Y-97569393D01*
X140163275Y-97524619D01*
X140303557Y-97514521D01*
X140435690Y-97540018D01*
X140435690Y-97540018D01*
G37*
X140435690Y-97540018D02*
X140470585Y-97555269D01*
X140553877Y-97621235D01*
X140625103Y-97716618D01*
X140669153Y-97818406D01*
X140676322Y-97868587D01*
X140652285Y-97938647D01*
X140599561Y-97975717D01*
X140543031Y-97998164D01*
X140517146Y-98002300D01*
X140504542Y-97972283D01*
X140479654Y-97906961D01*
X140468735Y-97877445D01*
X140407508Y-97775348D01*
X140318861Y-97724423D01*
X140205193Y-97725989D01*
X140196774Y-97727994D01*
X140136088Y-97756767D01*
X140091474Y-97812859D01*
X140061002Y-97903163D01*
X140042744Y-98034571D01*
X140034771Y-98213974D01*
X140034023Y-98309433D01*
X140033652Y-98459913D01*
X140031223Y-98562495D01*
X140024760Y-98627672D01*
X140012288Y-98665938D01*
X139991833Y-98687785D01*
X139961419Y-98703707D01*
X139959661Y-98704509D01*
X139901091Y-98729272D01*
X139872075Y-98738391D01*
X139867616Y-98710822D01*
X139863799Y-98634620D01*
X139860899Y-98519541D01*
X139859191Y-98375341D01*
X139858851Y-98269814D01*
X139860588Y-98065613D01*
X139867382Y-97910697D01*
X139881607Y-97796024D01*
X139905638Y-97712551D01*
X139941848Y-97651236D01*
X139992612Y-97603034D01*
X140042739Y-97569393D01*
X140163275Y-97524619D01*
X140303557Y-97514521D01*
X140435690Y-97540018D01*
G36*
X141443439Y-97556540D02*
X141558950Y-97632034D01*
X141614664Y-97699617D01*
X141658804Y-97822255D01*
X141662309Y-97919298D01*
X141654368Y-98049056D01*
X141355115Y-98180039D01*
X141209611Y-98246958D01*
X141114537Y-98300790D01*
X141065101Y-98347416D01*
X141056511Y-98392720D01*
X141083972Y-98442582D01*
X141114253Y-98475632D01*
X141202363Y-98528633D01*
X141298196Y-98532347D01*
X141386212Y-98491041D01*
X141450869Y-98408983D01*
X141462433Y-98380008D01*
X141517825Y-98289509D01*
X141581553Y-98250940D01*
X141668966Y-98217946D01*
X141668966Y-98343034D01*
X141661238Y-98428156D01*
X141630966Y-98499938D01*
X141567518Y-98582356D01*
X141558088Y-98593066D01*
X141487513Y-98666391D01*
X141426847Y-98705742D01*
X141350950Y-98723845D01*
X141288030Y-98729774D01*
X141175487Y-98731251D01*
X141095370Y-98712535D01*
X141045390Y-98684747D01*
X140966838Y-98623641D01*
X140912463Y-98557554D01*
X140878052Y-98474441D01*
X140859388Y-98362254D01*
X140852256Y-98208946D01*
X140851687Y-98131136D01*
X140853622Y-98037853D01*
X141029899Y-98037853D01*
X141031944Y-98087896D01*
X141037039Y-98096092D01*
X141070666Y-98084958D01*
X141143030Y-98055493D01*
X141239747Y-98013601D01*
X141259973Y-98004597D01*
X141382203Y-97942442D01*
X141449547Y-97887815D01*
X141464348Y-97836649D01*
X141428947Y-97784876D01*
X141399711Y-97762000D01*
X141294216Y-97716250D01*
X141195476Y-97723808D01*
X141112812Y-97779651D01*
X141055548Y-97878753D01*
X141037188Y-97957414D01*
X141029899Y-98037853D01*
X140853622Y-98037853D01*
X140855459Y-97949351D01*
X140869359Y-97814853D01*
X140896894Y-97716916D01*
X140941572Y-97644811D01*
X141006901Y-97587813D01*
X141035383Y-97569393D01*
X141164763Y-97521422D01*
X141306412Y-97518403D01*
X141443439Y-97556540D01*
X141443439Y-97556540D01*
G37*
X141443439Y-97556540D02*
X141558950Y-97632034D01*
X141614664Y-97699617D01*
X141658804Y-97822255D01*
X141662309Y-97919298D01*
X141654368Y-98049056D01*
X141355115Y-98180039D01*
X141209611Y-98246958D01*
X141114537Y-98300790D01*
X141065101Y-98347416D01*
X141056511Y-98392720D01*
X141083972Y-98442582D01*
X141114253Y-98475632D01*
X141202363Y-98528633D01*
X141298196Y-98532347D01*
X141386212Y-98491041D01*
X141450869Y-98408983D01*
X141462433Y-98380008D01*
X141517825Y-98289509D01*
X141581553Y-98250940D01*
X141668966Y-98217946D01*
X141668966Y-98343034D01*
X141661238Y-98428156D01*
X141630966Y-98499938D01*
X141567518Y-98582356D01*
X141558088Y-98593066D01*
X141487513Y-98666391D01*
X141426847Y-98705742D01*
X141350950Y-98723845D01*
X141288030Y-98729774D01*
X141175487Y-98731251D01*
X141095370Y-98712535D01*
X141045390Y-98684747D01*
X140966838Y-98623641D01*
X140912463Y-98557554D01*
X140878052Y-98474441D01*
X140859388Y-98362254D01*
X140852256Y-98208946D01*
X140851687Y-98131136D01*
X140853622Y-98037853D01*
X141029899Y-98037853D01*
X141031944Y-98087896D01*
X141037039Y-98096092D01*
X141070666Y-98084958D01*
X141143030Y-98055493D01*
X141239747Y-98013601D01*
X141259973Y-98004597D01*
X141382203Y-97942442D01*
X141449547Y-97887815D01*
X141464348Y-97836649D01*
X141428947Y-97784876D01*
X141399711Y-97762000D01*
X141294216Y-97716250D01*
X141195476Y-97723808D01*
X141112812Y-97779651D01*
X141055548Y-97878753D01*
X141037188Y-97957414D01*
X141029899Y-98037853D01*
X140853622Y-98037853D01*
X140855459Y-97949351D01*
X140869359Y-97814853D01*
X140896894Y-97716916D01*
X140941572Y-97644811D01*
X141006901Y-97587813D01*
X141035383Y-97569393D01*
X141164763Y-97521422D01*
X141306412Y-97518403D01*
X141443439Y-97556540D01*
G36*
X135309014Y-88052998D02*
X135467006Y-88053863D01*
X135581347Y-88056205D01*
X135659407Y-88060762D01*
X135708554Y-88068270D01*
X135736159Y-88079466D01*
X135749592Y-88095088D01*
X135756221Y-88115873D01*
X135756865Y-88118563D01*
X135766935Y-88167113D01*
X135785575Y-88262905D01*
X135810845Y-88395743D01*
X135840807Y-88555431D01*
X135873522Y-88731774D01*
X135874664Y-88737967D01*
X135907433Y-88910782D01*
X135938093Y-89063469D01*
X135964664Y-89186871D01*
X135985167Y-89271831D01*
X135997626Y-89309190D01*
X135998220Y-89309852D01*
X136034919Y-89328095D01*
X136110586Y-89358497D01*
X136208878Y-89394493D01*
X136209425Y-89394685D01*
X136333233Y-89441222D01*
X136479196Y-89500504D01*
X136616781Y-89560109D01*
X136623293Y-89563056D01*
X136847390Y-89664765D01*
X137343619Y-89325897D01*
X137495846Y-89222592D01*
X137633741Y-89130237D01*
X137749315Y-89054084D01*
X137834579Y-88999385D01*
X137881544Y-88971393D01*
X137886004Y-88969317D01*
X137920134Y-88978560D01*
X137983881Y-89023156D01*
X138079731Y-89105209D01*
X138210169Y-89226821D01*
X138343328Y-89356205D01*
X138471694Y-89483702D01*
X138586581Y-89600046D01*
X138681073Y-89698052D01*
X138748253Y-89770536D01*
X138781206Y-89810313D01*
X138782432Y-89812361D01*
X138786074Y-89839656D01*
X138772350Y-89884234D01*
X138737869Y-89952112D01*
X138679239Y-90049311D01*
X138593070Y-90181851D01*
X138478200Y-90352476D01*
X138376254Y-90502655D01*
X138285123Y-90637350D01*
X138210073Y-90748740D01*
X138156369Y-90829005D01*
X138129280Y-90870325D01*
X138127574Y-90873130D01*
X138130882Y-90912721D01*
X138155953Y-90989669D01*
X138197798Y-91089432D01*
X138212712Y-91121291D01*
X138277786Y-91263226D01*
X138347212Y-91424273D01*
X138403609Y-91563621D01*
X138444247Y-91667044D01*
X138476526Y-91745642D01*
X138495178Y-91786720D01*
X138497497Y-91789885D01*
X138531803Y-91795128D01*
X138612669Y-91809494D01*
X138729343Y-91830937D01*
X138871075Y-91857413D01*
X139027110Y-91886877D01*
X139186698Y-91917283D01*
X139339085Y-91946588D01*
X139473521Y-91972745D01*
X139579252Y-91993710D01*
X139645526Y-92007439D01*
X139661782Y-92011320D01*
X139678573Y-92020900D01*
X139691249Y-92042536D01*
X139700378Y-92083531D01*
X139706531Y-92151189D01*
X139710280Y-92252812D01*
X139712192Y-92395703D01*
X139712840Y-92587165D01*
X139712874Y-92665645D01*
X139712874Y-93303906D01*
X139559598Y-93334160D01*
X139474322Y-93350564D01*
X139347070Y-93374509D01*
X139193315Y-93403107D01*
X139028534Y-93433467D01*
X138982989Y-93441806D01*
X138830932Y-93471370D01*
X138698468Y-93500442D01*
X138596714Y-93526329D01*
X138536788Y-93546337D01*
X138526805Y-93552301D01*
X138502293Y-93594534D01*
X138467148Y-93676370D01*
X138428173Y-93781683D01*
X138420442Y-93804368D01*
X138369360Y-93945018D01*
X138305954Y-94103714D01*
X138243904Y-94246225D01*
X138243598Y-94246886D01*
X138140267Y-94470440D01*
X138819961Y-95470232D01*
X138383621Y-95907300D01*
X138251649Y-96037381D01*
X138131279Y-96152048D01*
X138029273Y-96245181D01*
X137952391Y-96310658D01*
X137907393Y-96342357D01*
X137900938Y-96344368D01*
X137863040Y-96328529D01*
X137785708Y-96284496D01*
X137677389Y-96217490D01*
X137546532Y-96132734D01*
X137405052Y-96037816D01*
X137261461Y-95940998D01*
X137133435Y-95856751D01*
X137029105Y-95790258D01*
X136956600Y-95746702D01*
X136924158Y-95731264D01*
X136884576Y-95744328D01*
X136809519Y-95778750D01*
X136714468Y-95827380D01*
X136704392Y-95832785D01*
X136576391Y-95896980D01*
X136488618Y-95928463D01*
X136434028Y-95928798D01*
X136405575Y-95899548D01*
X136405410Y-95899138D01*
X136391188Y-95864498D01*
X136357269Y-95782269D01*
X136306284Y-95658814D01*
X136240862Y-95500498D01*
X136163634Y-95313686D01*
X136077229Y-95104742D01*
X135993551Y-94902446D01*
X135901588Y-94679200D01*
X135817150Y-94472392D01*
X135742769Y-94288362D01*
X135680974Y-94133451D01*
X135634297Y-94013996D01*
X135605268Y-93936339D01*
X135596322Y-93907356D01*
X135618756Y-93874110D01*
X135677439Y-93821123D01*
X135755689Y-93762704D01*
X135978534Y-93577952D01*
X136152718Y-93366182D01*
X136276154Y-93131856D01*
X136346754Y-92879434D01*
X136362431Y-92613377D01*
X136351036Y-92490575D01*
X136288950Y-92235793D01*
X136182023Y-92010801D01*
X136036889Y-91817817D01*
X135860178Y-91659061D01*
X135658522Y-91536750D01*
X135438554Y-91453105D01*
X135206906Y-91410344D01*
X134970209Y-91410687D01*
X134735095Y-91456352D01*
X134508196Y-91549559D01*
X134296144Y-91692527D01*
X134207636Y-91773383D01*
X134037889Y-91981007D01*
X133919699Y-92207895D01*
X133852278Y-92447433D01*
X133834840Y-92693007D01*
X133866598Y-92938003D01*
X133946765Y-93175808D01*
X134074555Y-93399807D01*
X134249180Y-93603387D01*
X134444312Y-93762704D01*
X134525591Y-93823602D01*
X134583009Y-93876015D01*
X134603678Y-93907406D01*
X134592856Y-93941639D01*
X134562077Y-94023419D01*
X134513874Y-94146407D01*
X134450778Y-94304263D01*
X134375322Y-94490649D01*
X134290038Y-94699226D01*
X134206219Y-94902496D01*
X134113745Y-95125933D01*
X134028089Y-95332984D01*
X133951882Y-95517286D01*
X133887753Y-95672475D01*
X133838332Y-95792188D01*
X133806248Y-95870061D01*
X133794359Y-95899138D01*
X133766274Y-95928677D01*
X133711949Y-95928591D01*
X133624395Y-95897326D01*
X133496619Y-95833329D01*
X133495608Y-95832785D01*
X133399402Y-95783121D01*
X133321631Y-95746945D01*
X133277777Y-95731408D01*
X133275842Y-95731264D01*
X133242829Y-95747024D01*
X133169946Y-95790850D01*
X133065322Y-95857557D01*
X132937090Y-95941964D01*
X132794948Y-96037816D01*
X132650233Y-96134867D01*
X132519804Y-96219270D01*
X132412110Y-96285801D01*
X132335598Y-96329238D01*
X132299062Y-96344368D01*
X132265418Y-96324482D01*
X132197776Y-96268903D01*
X132102893Y-96183754D01*
X131987530Y-96075153D01*
X131858445Y-95949221D01*
X131816229Y-95907149D01*
X131379739Y-95469931D01*
X131711977Y-94982340D01*
X131812946Y-94832605D01*
X131901562Y-94698220D01*
X131972854Y-94586969D01*
X132021850Y-94506639D01*
X132043578Y-94465014D01*
X132044215Y-94462053D01*
X132032760Y-94422818D01*
X132001949Y-94343895D01*
X131957116Y-94238509D01*
X131925647Y-94167954D01*
X131866808Y-94032876D01*
X131811396Y-93896409D01*
X131768436Y-93781103D01*
X131756766Y-93745977D01*
X131723611Y-93652174D01*
X131691201Y-93579694D01*
X131673399Y-93552301D01*
X131634114Y-93535536D01*
X131548374Y-93511770D01*
X131427303Y-93483697D01*
X131282027Y-93454009D01*
X131217012Y-93441806D01*
X131051913Y-93411468D01*
X130893552Y-93382093D01*
X130757404Y-93356569D01*
X130658943Y-93337785D01*
X130640402Y-93334160D01*
X130487127Y-93303906D01*
X130487127Y-92665645D01*
X130487471Y-92455770D01*
X130488884Y-92296980D01*
X130491936Y-92181973D01*
X130497197Y-92103446D01*
X130505237Y-92054096D01*
X130516627Y-92026619D01*
X130531937Y-92013713D01*
X130538218Y-92011320D01*
X130576104Y-92002833D01*
X130659805Y-91985900D01*
X130778567Y-91962566D01*
X130921639Y-91934875D01*
X131078268Y-91904873D01*
X131237703Y-91874604D01*
X131389191Y-91846115D01*
X131521981Y-91821449D01*
X131625319Y-91802651D01*
X131688455Y-91791767D01*
X131702503Y-91789885D01*
X131715230Y-91764704D01*
X131743400Y-91697622D01*
X131781748Y-91601333D01*
X131796391Y-91563621D01*
X131855452Y-91417921D01*
X131925000Y-91256951D01*
X131987288Y-91121291D01*
X132033121Y-91017561D01*
X132063613Y-90932326D01*
X132073792Y-90880126D01*
X132072169Y-90873130D01*
X132050657Y-90840102D01*
X132001535Y-90766643D01*
X131930077Y-90660577D01*
X131841555Y-90529726D01*
X131741241Y-90381912D01*
X131721406Y-90352734D01*
X131605012Y-90179863D01*
X131519452Y-90048226D01*
X131461316Y-89951761D01*
X131427192Y-89884408D01*
X131413669Y-89840106D01*
X131417336Y-89812794D01*
X131417430Y-89812620D01*
X131446293Y-89776746D01*
X131510133Y-89707391D01*
X131602031Y-89611745D01*
X131715067Y-89496999D01*
X131842321Y-89370341D01*
X131856672Y-89356205D01*
X132017043Y-89200903D01*
X132140805Y-89086870D01*
X132230445Y-89012002D01*
X132288448Y-88974196D01*
X132313996Y-88969317D01*
X132351282Y-88990603D01*
X132428657Y-89039773D01*
X132538133Y-89111575D01*
X132671720Y-89200755D01*
X132821430Y-89302063D01*
X132856382Y-89325897D01*
X133352610Y-89664765D01*
X133576707Y-89563056D01*
X133712989Y-89503783D01*
X133859276Y-89444170D01*
X133985035Y-89396640D01*
X133990575Y-89394685D01*
X134088943Y-89358677D01*
X134164771Y-89328229D01*
X134201718Y-89309905D01*
X134201780Y-89309852D01*
X134213504Y-89276729D01*
X134233432Y-89195267D01*
X134259587Y-89074625D01*
X134289990Y-88923959D01*
X134322663Y-88752428D01*
X134325336Y-88737967D01*
X134358110Y-88561235D01*
X134388198Y-88400810D01*
X134413661Y-88266888D01*
X134432559Y-88169663D01*
X134442953Y-88119332D01*
X134443135Y-88118563D01*
X134449461Y-88097153D01*
X134461761Y-88080988D01*
X134487406Y-88069331D01*
X134533765Y-88061445D01*
X134608208Y-88056593D01*
X134718105Y-88054039D01*
X134870825Y-88053045D01*
X135073738Y-88052874D01*
X135100000Y-88052874D01*
X135309014Y-88052998D01*
X135309014Y-88052998D01*
G37*
X135309014Y-88052998D02*
X135467006Y-88053863D01*
X135581347Y-88056205D01*
X135659407Y-88060762D01*
X135708554Y-88068270D01*
X135736159Y-88079466D01*
X135749592Y-88095088D01*
X135756221Y-88115873D01*
X135756865Y-88118563D01*
X135766935Y-88167113D01*
X135785575Y-88262905D01*
X135810845Y-88395743D01*
X135840807Y-88555431D01*
X135873522Y-88731774D01*
X135874664Y-88737967D01*
X135907433Y-88910782D01*
X135938093Y-89063469D01*
X135964664Y-89186871D01*
X135985167Y-89271831D01*
X135997626Y-89309190D01*
X135998220Y-89309852D01*
X136034919Y-89328095D01*
X136110586Y-89358497D01*
X136208878Y-89394493D01*
X136209425Y-89394685D01*
X136333233Y-89441222D01*
X136479196Y-89500504D01*
X136616781Y-89560109D01*
X136623293Y-89563056D01*
X136847390Y-89664765D01*
X137343619Y-89325897D01*
X137495846Y-89222592D01*
X137633741Y-89130237D01*
X137749315Y-89054084D01*
X137834579Y-88999385D01*
X137881544Y-88971393D01*
X137886004Y-88969317D01*
X137920134Y-88978560D01*
X137983881Y-89023156D01*
X138079731Y-89105209D01*
X138210169Y-89226821D01*
X138343328Y-89356205D01*
X138471694Y-89483702D01*
X138586581Y-89600046D01*
X138681073Y-89698052D01*
X138748253Y-89770536D01*
X138781206Y-89810313D01*
X138782432Y-89812361D01*
X138786074Y-89839656D01*
X138772350Y-89884234D01*
X138737869Y-89952112D01*
X138679239Y-90049311D01*
X138593070Y-90181851D01*
X138478200Y-90352476D01*
X138376254Y-90502655D01*
X138285123Y-90637350D01*
X138210073Y-90748740D01*
X138156369Y-90829005D01*
X138129280Y-90870325D01*
X138127574Y-90873130D01*
X138130882Y-90912721D01*
X138155953Y-90989669D01*
X138197798Y-91089432D01*
X138212712Y-91121291D01*
X138277786Y-91263226D01*
X138347212Y-91424273D01*
X138403609Y-91563621D01*
X138444247Y-91667044D01*
X138476526Y-91745642D01*
X138495178Y-91786720D01*
X138497497Y-91789885D01*
X138531803Y-91795128D01*
X138612669Y-91809494D01*
X138729343Y-91830937D01*
X138871075Y-91857413D01*
X139027110Y-91886877D01*
X139186698Y-91917283D01*
X139339085Y-91946588D01*
X139473521Y-91972745D01*
X139579252Y-91993710D01*
X139645526Y-92007439D01*
X139661782Y-92011320D01*
X139678573Y-92020900D01*
X139691249Y-92042536D01*
X139700378Y-92083531D01*
X139706531Y-92151189D01*
X139710280Y-92252812D01*
X139712192Y-92395703D01*
X139712840Y-92587165D01*
X139712874Y-92665645D01*
X139712874Y-93303906D01*
X139559598Y-93334160D01*
X139474322Y-93350564D01*
X139347070Y-93374509D01*
X139193315Y-93403107D01*
X139028534Y-93433467D01*
X138982989Y-93441806D01*
X138830932Y-93471370D01*
X138698468Y-93500442D01*
X138596714Y-93526329D01*
X138536788Y-93546337D01*
X138526805Y-93552301D01*
X138502293Y-93594534D01*
X138467148Y-93676370D01*
X138428173Y-93781683D01*
X138420442Y-93804368D01*
X138369360Y-93945018D01*
X138305954Y-94103714D01*
X138243904Y-94246225D01*
X138243598Y-94246886D01*
X138140267Y-94470440D01*
X138819961Y-95470232D01*
X138383621Y-95907300D01*
X138251649Y-96037381D01*
X138131279Y-96152048D01*
X138029273Y-96245181D01*
X137952391Y-96310658D01*
X137907393Y-96342357D01*
X137900938Y-96344368D01*
X137863040Y-96328529D01*
X137785708Y-96284496D01*
X137677389Y-96217490D01*
X137546532Y-96132734D01*
X137405052Y-96037816D01*
X137261461Y-95940998D01*
X137133435Y-95856751D01*
X137029105Y-95790258D01*
X136956600Y-95746702D01*
X136924158Y-95731264D01*
X136884576Y-95744328D01*
X136809519Y-95778750D01*
X136714468Y-95827380D01*
X136704392Y-95832785D01*
X136576391Y-95896980D01*
X136488618Y-95928463D01*
X136434028Y-95928798D01*
X136405575Y-95899548D01*
X136405410Y-95899138D01*
X136391188Y-95864498D01*
X136357269Y-95782269D01*
X136306284Y-95658814D01*
X136240862Y-95500498D01*
X136163634Y-95313686D01*
X136077229Y-95104742D01*
X135993551Y-94902446D01*
X135901588Y-94679200D01*
X135817150Y-94472392D01*
X135742769Y-94288362D01*
X135680974Y-94133451D01*
X135634297Y-94013996D01*
X135605268Y-93936339D01*
X135596322Y-93907356D01*
X135618756Y-93874110D01*
X135677439Y-93821123D01*
X135755689Y-93762704D01*
X135978534Y-93577952D01*
X136152718Y-93366182D01*
X136276154Y-93131856D01*
X136346754Y-92879434D01*
X136362431Y-92613377D01*
X136351036Y-92490575D01*
X136288950Y-92235793D01*
X136182023Y-92010801D01*
X136036889Y-91817817D01*
X135860178Y-91659061D01*
X135658522Y-91536750D01*
X135438554Y-91453105D01*
X135206906Y-91410344D01*
X134970209Y-91410687D01*
X134735095Y-91456352D01*
X134508196Y-91549559D01*
X134296144Y-91692527D01*
X134207636Y-91773383D01*
X134037889Y-91981007D01*
X133919699Y-92207895D01*
X133852278Y-92447433D01*
X133834840Y-92693007D01*
X133866598Y-92938003D01*
X133946765Y-93175808D01*
X134074555Y-93399807D01*
X134249180Y-93603387D01*
X134444312Y-93762704D01*
X134525591Y-93823602D01*
X134583009Y-93876015D01*
X134603678Y-93907406D01*
X134592856Y-93941639D01*
X134562077Y-94023419D01*
X134513874Y-94146407D01*
X134450778Y-94304263D01*
X134375322Y-94490649D01*
X134290038Y-94699226D01*
X134206219Y-94902496D01*
X134113745Y-95125933D01*
X134028089Y-95332984D01*
X133951882Y-95517286D01*
X133887753Y-95672475D01*
X133838332Y-95792188D01*
X133806248Y-95870061D01*
X133794359Y-95899138D01*
X133766274Y-95928677D01*
X133711949Y-95928591D01*
X133624395Y-95897326D01*
X133496619Y-95833329D01*
X133495608Y-95832785D01*
X133399402Y-95783121D01*
X133321631Y-95746945D01*
X133277777Y-95731408D01*
X133275842Y-95731264D01*
X133242829Y-95747024D01*
X133169946Y-95790850D01*
X133065322Y-95857557D01*
X132937090Y-95941964D01*
X132794948Y-96037816D01*
X132650233Y-96134867D01*
X132519804Y-96219270D01*
X132412110Y-96285801D01*
X132335598Y-96329238D01*
X132299062Y-96344368D01*
X132265418Y-96324482D01*
X132197776Y-96268903D01*
X132102893Y-96183754D01*
X131987530Y-96075153D01*
X131858445Y-95949221D01*
X131816229Y-95907149D01*
X131379739Y-95469931D01*
X131711977Y-94982340D01*
X131812946Y-94832605D01*
X131901562Y-94698220D01*
X131972854Y-94586969D01*
X132021850Y-94506639D01*
X132043578Y-94465014D01*
X132044215Y-94462053D01*
X132032760Y-94422818D01*
X132001949Y-94343895D01*
X131957116Y-94238509D01*
X131925647Y-94167954D01*
X131866808Y-94032876D01*
X131811396Y-93896409D01*
X131768436Y-93781103D01*
X131756766Y-93745977D01*
X131723611Y-93652174D01*
X131691201Y-93579694D01*
X131673399Y-93552301D01*
X131634114Y-93535536D01*
X131548374Y-93511770D01*
X131427303Y-93483697D01*
X131282027Y-93454009D01*
X131217012Y-93441806D01*
X131051913Y-93411468D01*
X130893552Y-93382093D01*
X130757404Y-93356569D01*
X130658943Y-93337785D01*
X130640402Y-93334160D01*
X130487127Y-93303906D01*
X130487127Y-92665645D01*
X130487471Y-92455770D01*
X130488884Y-92296980D01*
X130491936Y-92181973D01*
X130497197Y-92103446D01*
X130505237Y-92054096D01*
X130516627Y-92026619D01*
X130531937Y-92013713D01*
X130538218Y-92011320D01*
X130576104Y-92002833D01*
X130659805Y-91985900D01*
X130778567Y-91962566D01*
X130921639Y-91934875D01*
X131078268Y-91904873D01*
X131237703Y-91874604D01*
X131389191Y-91846115D01*
X131521981Y-91821449D01*
X131625319Y-91802651D01*
X131688455Y-91791767D01*
X131702503Y-91789885D01*
X131715230Y-91764704D01*
X131743400Y-91697622D01*
X131781748Y-91601333D01*
X131796391Y-91563621D01*
X131855452Y-91417921D01*
X131925000Y-91256951D01*
X131987288Y-91121291D01*
X132033121Y-91017561D01*
X132063613Y-90932326D01*
X132073792Y-90880126D01*
X132072169Y-90873130D01*
X132050657Y-90840102D01*
X132001535Y-90766643D01*
X131930077Y-90660577D01*
X131841555Y-90529726D01*
X131741241Y-90381912D01*
X131721406Y-90352734D01*
X131605012Y-90179863D01*
X131519452Y-90048226D01*
X131461316Y-89951761D01*
X131427192Y-89884408D01*
X131413669Y-89840106D01*
X131417336Y-89812794D01*
X131417430Y-89812620D01*
X131446293Y-89776746D01*
X131510133Y-89707391D01*
X131602031Y-89611745D01*
X131715067Y-89496999D01*
X131842321Y-89370341D01*
X131856672Y-89356205D01*
X132017043Y-89200903D01*
X132140805Y-89086870D01*
X132230445Y-89012002D01*
X132288448Y-88974196D01*
X132313996Y-88969317D01*
X132351282Y-88990603D01*
X132428657Y-89039773D01*
X132538133Y-89111575D01*
X132671720Y-89200755D01*
X132821430Y-89302063D01*
X132856382Y-89325897D01*
X133352610Y-89664765D01*
X133576707Y-89563056D01*
X133712989Y-89503783D01*
X133859276Y-89444170D01*
X133985035Y-89396640D01*
X133990575Y-89394685D01*
X134088943Y-89358677D01*
X134164771Y-89328229D01*
X134201718Y-89309905D01*
X134201780Y-89309852D01*
X134213504Y-89276729D01*
X134233432Y-89195267D01*
X134259587Y-89074625D01*
X134289990Y-88923959D01*
X134322663Y-88752428D01*
X134325336Y-88737967D01*
X134358110Y-88561235D01*
X134388198Y-88400810D01*
X134413661Y-88266888D01*
X134432559Y-88169663D01*
X134442953Y-88119332D01*
X134443135Y-88118563D01*
X134449461Y-88097153D01*
X134461761Y-88080988D01*
X134487406Y-88069331D01*
X134533765Y-88061445D01*
X134608208Y-88056593D01*
X134718105Y-88054039D01*
X134870825Y-88053045D01*
X135073738Y-88052874D01*
X135100000Y-88052874D01*
X135309014Y-88052998D01*
D11*
X151195239Y-97028571D02*
X151338096Y-97076190D01*
X151385715Y-97123810D01*
X151433334Y-97219048D01*
X151433334Y-97361905D01*
X151385715Y-97457143D01*
X151338096Y-97504762D01*
X151242858Y-97552381D01*
X150861905Y-97552381D01*
X150861905Y-96552381D01*
X151195239Y-96552381D01*
X151290477Y-96600000D01*
X151338096Y-96647619D01*
X151385715Y-96742857D01*
X151385715Y-96838095D01*
X151338096Y-96933333D01*
X151290477Y-96980952D01*
X151195239Y-97028571D01*
X150861905Y-97028571D01*
X152385715Y-97552381D02*
X151814286Y-97552381D01*
X152100000Y-97552381D02*
X152100000Y-96552381D01*
X152004762Y-96695238D01*
X151909524Y-96790476D01*
X151814286Y-96838095D01*
X128433334Y-87457143D02*
X128385715Y-87504762D01*
X128242858Y-87552381D01*
X128147620Y-87552381D01*
X128004762Y-87504762D01*
X127909524Y-87409524D01*
X127861905Y-87314286D01*
X127814286Y-87123810D01*
X127814286Y-86980952D01*
X127861905Y-86790476D01*
X127909524Y-86695238D01*
X128004762Y-86600000D01*
X128147620Y-86552381D01*
X128242858Y-86552381D01*
X128385715Y-86600000D01*
X128433334Y-86647619D01*
X129385715Y-87552381D02*
X128814286Y-87552381D01*
X129100000Y-87552381D02*
X129100000Y-86552381D01*
X129004762Y-86695238D01*
X128909524Y-86790476D01*
X128814286Y-86838095D01*
X145433334Y-105957143D02*
X145385715Y-106004762D01*
X145242858Y-106052381D01*
X145147620Y-106052381D01*
X145004762Y-106004762D01*
X144909524Y-105909524D01*
X144861905Y-105814286D01*
X144814286Y-105623810D01*
X144814286Y-105480952D01*
X144861905Y-105290476D01*
X144909524Y-105195238D01*
X145004762Y-105100000D01*
X145147620Y-105052381D01*
X145242858Y-105052381D01*
X145385715Y-105100000D01*
X145433334Y-105147619D01*
X145814286Y-105147619D02*
X145861905Y-105100000D01*
X145957143Y-105052381D01*
X146195239Y-105052381D01*
X146290477Y-105100000D01*
X146338096Y-105147619D01*
X146385715Y-105242857D01*
X146385715Y-105338095D01*
X146338096Y-105480952D01*
X145766667Y-106052381D01*
X146385715Y-106052381D01*
X144499048Y-100261429D02*
X145260953Y-100261429D01*
X144880001Y-100642381D02*
X144880001Y-99880476D01*
X155433334Y-94457143D02*
X155385715Y-94504762D01*
X155242858Y-94552381D01*
X155147620Y-94552381D01*
X155004762Y-94504762D01*
X154909524Y-94409524D01*
X154861905Y-94314286D01*
X154814286Y-94123810D01*
X154814286Y-93980952D01*
X154861905Y-93790476D01*
X154909524Y-93695238D01*
X155004762Y-93600000D01*
X155147620Y-93552381D01*
X155242858Y-93552381D01*
X155385715Y-93600000D01*
X155433334Y-93647619D01*
X155766667Y-93552381D02*
X156385715Y-93552381D01*
X156052381Y-93933333D01*
X156195239Y-93933333D01*
X156290477Y-93980952D01*
X156338096Y-94028571D01*
X156385715Y-94123810D01*
X156385715Y-94361905D01*
X156338096Y-94457143D01*
X156290477Y-94504762D01*
X156195239Y-94552381D01*
X155909524Y-94552381D01*
X155814286Y-94504762D01*
X155766667Y-94457143D01*
X141504762Y-82647619D02*
X141409524Y-82600000D01*
X141314286Y-82504762D01*
X141171429Y-82361905D01*
X141076190Y-82314286D01*
X140980952Y-82314286D01*
X141028571Y-82552381D02*
X140933333Y-82504762D01*
X140838095Y-82409524D01*
X140790476Y-82219048D01*
X140790476Y-81885714D01*
X140838095Y-81695238D01*
X140933333Y-81600000D01*
X141028571Y-81552381D01*
X141219048Y-81552381D01*
X141314286Y-81600000D01*
X141409524Y-81695238D01*
X141457143Y-81885714D01*
X141457143Y-82219048D01*
X141409524Y-82409524D01*
X141314286Y-82504762D01*
X141219048Y-82552381D01*
X141028571Y-82552381D01*
X142409524Y-82552381D02*
X141838095Y-82552381D01*
X142123809Y-82552381D02*
X142123809Y-81552381D01*
X142028571Y-81695238D01*
X141933333Y-81790476D01*
X141838095Y-81838095D01*
X141433334Y-85552381D02*
X141100000Y-85076190D01*
X140861905Y-85552381D02*
X140861905Y-84552381D01*
X141242858Y-84552381D01*
X141338096Y-84600000D01*
X141385715Y-84647619D01*
X141433334Y-84742857D01*
X141433334Y-84885714D01*
X141385715Y-84980952D01*
X141338096Y-85028571D01*
X141242858Y-85076190D01*
X140861905Y-85076190D01*
X142385715Y-85552381D02*
X141814286Y-85552381D01*
X142100000Y-85552381D02*
X142100000Y-84552381D01*
X142004762Y-84695238D01*
X141909524Y-84790476D01*
X141814286Y-84838095D01*
X141433334Y-79552381D02*
X141100000Y-79076190D01*
X140861905Y-79552381D02*
X140861905Y-78552381D01*
X141242858Y-78552381D01*
X141338096Y-78600000D01*
X141385715Y-78647619D01*
X141433334Y-78742857D01*
X141433334Y-78885714D01*
X141385715Y-78980952D01*
X141338096Y-79028571D01*
X141242858Y-79076190D01*
X140861905Y-79076190D01*
X141814286Y-78647619D02*
X141861905Y-78600000D01*
X141957143Y-78552381D01*
X142195239Y-78552381D01*
X142290477Y-78600000D01*
X142338096Y-78647619D01*
X142385715Y-78742857D01*
X142385715Y-78838095D01*
X142338096Y-78980952D01*
X141766667Y-79552381D01*
X142385715Y-79552381D01*
X144433334Y-94552381D02*
X144100000Y-94076190D01*
X143861905Y-94552381D02*
X143861905Y-93552381D01*
X144242858Y-93552381D01*
X144338096Y-93600000D01*
X144385715Y-93647619D01*
X144433334Y-93742857D01*
X144433334Y-93885714D01*
X144385715Y-93980952D01*
X144338096Y-94028571D01*
X144242858Y-94076190D01*
X143861905Y-94076190D01*
X144766667Y-93552381D02*
X145385715Y-93552381D01*
X145052381Y-93933333D01*
X145195239Y-93933333D01*
X145290477Y-93980952D01*
X145338096Y-94028571D01*
X145385715Y-94123810D01*
X145385715Y-94361905D01*
X145338096Y-94457143D01*
X145290477Y-94504762D01*
X145195239Y-94552381D01*
X144909524Y-94552381D01*
X144814286Y-94504762D01*
X144766667Y-94457143D01*
X137766667Y-74504762D02*
X137909524Y-74552381D01*
X138147620Y-74552381D01*
X138242858Y-74504762D01*
X138290477Y-74457143D01*
X138338096Y-74361905D01*
X138338096Y-74266667D01*
X138290477Y-74171429D01*
X138242858Y-74123810D01*
X138147620Y-74076190D01*
X137957143Y-74028571D01*
X137861905Y-73980952D01*
X137814286Y-73933333D01*
X137766667Y-73838095D01*
X137766667Y-73742857D01*
X137814286Y-73647619D01*
X137861905Y-73600000D01*
X137957143Y-73552381D01*
X138195239Y-73552381D01*
X138338096Y-73600000D01*
X138671429Y-73552381D02*
X138909524Y-74552381D01*
X139100001Y-73838095D01*
X139290477Y-74552381D01*
X139528572Y-73552381D01*
X140433334Y-74552381D02*
X139861905Y-74552381D01*
X140147619Y-74552381D02*
X140147619Y-73552381D01*
X140052381Y-73695238D01*
X139957143Y-73790476D01*
X139861905Y-73838095D01*
X141338095Y-90052381D02*
X141338095Y-90861905D01*
X141385714Y-90957143D01*
X141433333Y-91004762D01*
X141528571Y-91052381D01*
X141719048Y-91052381D01*
X141814286Y-91004762D01*
X141861905Y-90957143D01*
X141909524Y-90861905D01*
X141909524Y-90052381D01*
X142909524Y-91052381D02*
X142338095Y-91052381D01*
X142623809Y-91052381D02*
X142623809Y-90052381D01*
X142528571Y-90195238D01*
X142433333Y-90290476D01*
X142338095Y-90338095D01*
X125052381Y-82861905D02*
X125861905Y-82861905D01*
X125957143Y-82814286D01*
X126004762Y-82766667D01*
X126052381Y-82671429D01*
X126052381Y-82480952D01*
X126004762Y-82385714D01*
X125957143Y-82338095D01*
X125861905Y-82290476D01*
X125052381Y-82290476D01*
X125147619Y-81861905D02*
X125100000Y-81814286D01*
X125052381Y-81719048D01*
X125052381Y-81480952D01*
X125100000Y-81385714D01*
X125147619Y-81338095D01*
X125242857Y-81290476D01*
X125338095Y-81290476D01*
X125480952Y-81338095D01*
X126052381Y-81909524D01*
X126052381Y-81290476D01*
X178861905Y-93552381D02*
X178861905Y-92552381D01*
X179100000Y-92552381D01*
X179242858Y-92600000D01*
X179338096Y-92695238D01*
X179385715Y-92790476D01*
X179433334Y-92980952D01*
X179433334Y-93123810D01*
X179385715Y-93314286D01*
X179338096Y-93409524D01*
X179242858Y-93504762D01*
X179100000Y-93552381D01*
X178861905Y-93552381D01*
X180385715Y-93552381D02*
X179814286Y-93552381D01*
X180100000Y-93552381D02*
X180100000Y-92552381D01*
X180004762Y-92695238D01*
X179909524Y-92790476D01*
X179814286Y-92838095D01*
X174433334Y-93552381D02*
X174100000Y-93076190D01*
X173861905Y-93552381D02*
X173861905Y-92552381D01*
X174242858Y-92552381D01*
X174338096Y-92600000D01*
X174385715Y-92647619D01*
X174433334Y-92742857D01*
X174433334Y-92885714D01*
X174385715Y-92980952D01*
X174338096Y-93028571D01*
X174242858Y-93076190D01*
X173861905Y-93076190D01*
X175290477Y-92885714D02*
X175290477Y-93552381D01*
X175052381Y-92504762D02*
X174814286Y-93219048D01*
X175433334Y-93219048D01*
X177504762Y-111433333D02*
X177552381Y-111290476D01*
X177552381Y-111052380D01*
X177504762Y-110957142D01*
X177457143Y-110909523D01*
X177361905Y-110861904D01*
X177266667Y-110861904D01*
X177171429Y-110909523D01*
X177123810Y-110957142D01*
X177076190Y-111052380D01*
X177028571Y-111242857D01*
X176980952Y-111338095D01*
X176933333Y-111385714D01*
X176838095Y-111433333D01*
X176742857Y-111433333D01*
X176647619Y-111385714D01*
X176600000Y-111338095D01*
X176552381Y-111242857D01*
X176552381Y-111004761D01*
X176600000Y-110861904D01*
X176552381Y-110528571D02*
X177552381Y-110290476D01*
X176838095Y-110099999D01*
X177552381Y-109909523D01*
X176552381Y-109671428D01*
X176647619Y-109338095D02*
X176600000Y-109290476D01*
X176552381Y-109195238D01*
X176552381Y-108957142D01*
X176600000Y-108861904D01*
X176647619Y-108814285D01*
X176742857Y-108766666D01*
X176838095Y-108766666D01*
X176980952Y-108814285D01*
X177552381Y-109385714D01*
X177552381Y-108766666D01*
X177266667Y-69852381D02*
X177266667Y-70566667D01*
X177219047Y-70709524D01*
X177123809Y-70804762D01*
X176980952Y-70852381D01*
X176885714Y-70852381D01*
X178266667Y-70852381D02*
X177695238Y-70852381D01*
X177980952Y-70852381D02*
X177980952Y-69852381D01*
X177885714Y-69995238D01*
X177790476Y-70090476D01*
X177695238Y-70138095D01*
X136266667Y-112552381D02*
X136266667Y-113266667D01*
X136219047Y-113409524D01*
X136123809Y-113504762D01*
X135980952Y-113552381D01*
X135885714Y-113552381D01*
X136695238Y-112647619D02*
X136742857Y-112600000D01*
X136838095Y-112552381D01*
X137076191Y-112552381D01*
X137171429Y-112600000D01*
X137219048Y-112647619D01*
X137266667Y-112742857D01*
X137266667Y-112838095D01*
X137219048Y-112980952D01*
X136647619Y-113552381D01*
X137266667Y-113552381D01*
M02*
