G04 #@! TF.FileFunction,Copper,L2,Bot,Signal*
%FSLAX46Y46*%
G04 Gerber Fmt 4.6, Leading zero omitted, Abs format (unit mm)*
G04 Created by KiCad (PCBNEW 4.0.7) date 10/30/17 13:40:03*
%MOMM*%
%LPD*%
G01*
G04 APERTURE LIST*
%ADD10C,0.100000*%
%ADD11R,50.000000X2.000000*%
%ADD12C,1.200000*%
%ADD13C,1.000000*%
G04 APERTURE END LIST*
D10*
D11*
X153600000Y-73240000D03*
X153600000Y-115150000D03*
X153600000Y-111340000D03*
X153600000Y-77050000D03*
X153600000Y-80860000D03*
X153600000Y-84670000D03*
X153600000Y-88480000D03*
X153600000Y-92290000D03*
X153600000Y-96100000D03*
X153600000Y-99910000D03*
X153600000Y-103720000D03*
X153600000Y-107530000D03*
D12*
X127300000Y-96100000D03*
X179800000Y-107530000D03*
D13*
X153600000Y-103720000D02*
X125900000Y-103720000D01*
X125900000Y-103720000D02*
X125900000Y-103700000D01*
X153600000Y-96100000D02*
X127300000Y-96100000D01*
X127300000Y-96100000D02*
X125900000Y-96100000D01*
X153600000Y-88480000D02*
X125900000Y-88480000D01*
X125900000Y-88480000D02*
X125900000Y-88500000D01*
X153600000Y-80860000D02*
X125900000Y-80860000D01*
X125900000Y-80860000D02*
X125900000Y-80800000D01*
X153600000Y-73240000D02*
X126760000Y-73240000D01*
X127340000Y-111340000D02*
X153600000Y-111340000D01*
X125900000Y-109900000D02*
X127340000Y-111340000D01*
X125900000Y-74100000D02*
X125900000Y-80800000D01*
X125900000Y-80800000D02*
X125900000Y-88500000D01*
X125900000Y-88500000D02*
X125900000Y-96100000D01*
X125900000Y-96100000D02*
X125900000Y-96700000D01*
X125900000Y-96700000D02*
X125900000Y-103700000D01*
X125900000Y-103700000D02*
X125900000Y-109900000D01*
X126760000Y-73240000D02*
X125900000Y-74100000D01*
X153600000Y-84670000D02*
X181130000Y-84670000D01*
X181130000Y-84670000D02*
X181200000Y-84600000D01*
X153600000Y-92290000D02*
X181200000Y-92290000D01*
X181200000Y-92290000D02*
X181200000Y-92300000D01*
X153600000Y-99910000D02*
X179600000Y-99910000D01*
X179600000Y-99910000D02*
X181200000Y-99910000D01*
X181200000Y-99910000D02*
X181200000Y-100000000D01*
X153600000Y-107530000D02*
X179800000Y-107530000D01*
X179800000Y-107530000D02*
X181200000Y-107530000D01*
X181200000Y-107530000D02*
X181200000Y-107500000D01*
X153600000Y-77050000D02*
X180050000Y-77050000D01*
X180050000Y-115150000D02*
X153600000Y-115150000D01*
X181200000Y-108600000D02*
X181200000Y-114000000D01*
X181200000Y-114000000D02*
X180050000Y-115150000D01*
X181200000Y-78200000D02*
X181200000Y-84600000D01*
X181200000Y-84600000D02*
X181200000Y-92300000D01*
X181200000Y-92300000D02*
X181200000Y-97200000D01*
X181200000Y-97200000D02*
X181200000Y-100000000D01*
X181200000Y-100000000D02*
X181200000Y-107500000D01*
X181200000Y-107500000D02*
X181200000Y-108600000D01*
X180050000Y-77050000D02*
X181200000Y-78200000D01*
M02*
